<?xml version="1.0" standalone="no"?>
<!DOCTYPE svg PUBLIC "-//W3C//DTD SVG 20010904//EN"
 "http://www.w3.org/TR/2001/REC-SVG-20010904/DTD/svg10.dtd">
<svg version="1.0" xmlns="http://www.w3.org/2000/svg"
 width="1280.000000pt" height="1200.000000pt" viewBox="0 0 1280.000000 1200.000000"
 preserveAspectRatio="xMidYMid meet">
<metadata>
Created by potrace 1.15, written by Peter Selinger 2001-2017
</metadata>
<g transform="translate(0.000000,1200.000000) scale(0.100000,-0.100000)"
fill="#000000" stroke="none">
<path d="M3385 11990 c3 -5 38 -19 77 -31 43 -13 86 -34 107 -53 48 -43 168
-136 211 -166 19 -13 74 -61 122 -106 91 -84 172 -134 295 -180 80 -30 93 -40
145 -117 22 -32 42 -56 45 -53 3 3 0 27 -7 53 -20 70 -88 136 -164 158 -114
32 -210 92 -316 196 -25 24 -63 56 -85 70 -22 14 -85 61 -140 104 -113 88
-202 135 -258 135 -23 0 -36 -4 -32 -10z"/>
<path d="M4585 11130 c-8 -13 13 -40 31 -40 7 0 66 -51 131 -113 66 -62 135
-125 156 -141 20 -15 50 -50 67 -77 28 -46 54 -68 65 -57 13 12 -60 130 -98
160 -23 18 -91 80 -152 139 -127 122 -182 158 -200 129z"/>
<path d="M5091 10606 c-6 -7 -15 -35 -20 -61 -6 -31 -18 -55 -34 -69 -14 -11
-39 -49 -57 -84 -32 -65 -59 -85 -95 -72 -13 5 -20 17 -20 36 -1 39 -24 42
-64 9 -33 -29 -38 -49 -19 -89 8 -18 22 -28 47 -32 93 -17 73 -60 -26 -55 -39
2 -45 -1 -63 -31 -23 -39 -24 -48 -7 -71 11 -16 16 -16 75 4 53 18 67 19 92 9
48 -20 45 -38 -8 -45 -26 -3 -63 -13 -82 -23 -30 -14 -35 -23 -38 -56 -4 -50
9 -64 43 -46 21 11 32 11 59 2 41 -15 79 -15 94 0 9 9 17 7 35 -10 30 -28 35
-28 69 5 l29 27 22 -28 c20 -25 26 -27 45 -17 27 15 75 77 68 89 -3 5 -19 12
-36 15 -35 7 -42 40 -12 56 29 15 62 -13 62 -52 0 -64 57 -107 143 -107 33 0
49 6 67 25 18 19 20 27 11 39 -16 19 -56 33 -113 41 -48 6 -59 20 -36 43 22
22 70 14 103 -18 21 -20 37 -28 48 -24 23 8 22 11 -23 105 -22 46 -40 89 -40
96 0 8 12 13 33 13 23 0 46 -11 80 -39 29 -25 85 -54 145 -77 178 -68 239 -95
305 -134 96 -58 173 -69 513 -71 309 -1 301 -3 488 69 l121 46 200 1 200 1
112 38 c107 36 209 91 309 167 49 36 103 51 164 43 35 -4 68 2 150 30 173 58
348 98 640 147 74 12 137 24 140 26 14 12 -32 22 -80 17 -345 -36 -575 -81
-748 -144 -32 -12 -78 -20 -118 -20 -99 0 -145 -16 -211 -72 -72 -61 -212
-132 -318 -159 -68 -18 -107 -21 -258 -20 l-177 1 -133 -44 c-208 -70 -220
-71 -512 -69 -295 3 -369 12 -440 53 -116 67 -157 85 -280 127 -71 24 -155 59
-187 78 -31 19 -63 35 -71 35 -8 0 -39 11 -67 24 -72 33 -96 24 -136 -55 -27
-55 -38 -64 -60 -51 -14 8 -14 10 0 21 11 9 16 30 16 65 0 33 7 65 21 90 17
32 19 43 9 66 -10 23 -19 28 -58 33 -61 7 -72 23 -59 87 5 27 7 56 4 65 -8 19
-41 20 -56 1z m9 -271 c19 -23 4 -45 -30 -45 -18 0 -33 6 -36 15 -8 19 13 45
36 45 10 0 23 -7 30 -15z"/>
<path d="M6770 9775 c-85 -8 -209 -14 -275 -13 -155 0 -565 -19 -768 -37 -120
-10 -166 -18 -190 -33 -26 -15 -62 -21 -163 -26 -71 -4 -230 -14 -354 -22
-124 -8 -360 -17 -524 -19 -190 -3 -339 -10 -410 -20 -118 -16 -298 -29 -617
-45 -107 -5 -314 -26 -460 -45 -145 -19 -327 -40 -404 -46 -182 -13 -325 -36
-345 -54 -9 -9 -36 -15 -61 -15 -54 0 -683 -90 -869 -124 -74 -14 -175 -30
-225 -36 -49 -6 -132 -20 -183 -32 -83 -19 -98 -26 -148 -69 -30 -27 -62 -49
-70 -49 -8 0 -40 -13 -72 -29 -31 -16 -156 -68 -277 -116 -265 -106 -265 -106
-265 -118 0 -5 -21 -32 -46 -59 l-46 -49 6 -77 c4 -42 10 -239 14 -437 l8
-360 61 -195 c101 -321 144 -480 133 -501 -15 -28 -12 -39 14 -49 16 -6 26
-19 30 -43 4 -19 18 -51 31 -71 30 -44 31 -56 6 -56 -51 0 -73 -42 -28 -54 34
-9 75 -7 82 4 11 18 34 11 52 -16 16 -25 16 -27 -7 -44 -35 -26 -21 -50 29
-48 22 1 47 -5 56 -12 17 -14 20 -46 5 -55 -18 -11 -11 -45 16 -71 20 -21 32
-25 62 -22 20 3 44 8 54 12 20 9 98 -57 98 -84 0 -10 -12 -25 -26 -35 l-26
-17 38 -39 c39 -40 56 -43 47 -9 -6 24 14 27 43 6 15 -12 17 -17 7 -27 -23
-23 -14 -46 25 -63 20 -9 48 -23 62 -31 14 -8 39 -20 55 -27 17 -7 34 -23 40
-35 6 -14 20 -23 40 -25 27 -3 30 -7 33 -40 3 -37 4 -38 45 -38 23 0 51 -7 61
-15 11 -8 27 -13 35 -10 20 6 45 -10 37 -23 -3 -6 -19 -13 -35 -17 -35 -8 -55
-29 -47 -50 7 -20 29 -19 74 5 35 19 38 19 50 3 21 -30 -11 -45 -79 -37 -37 4
-59 2 -63 -5 -12 -19 45 -33 115 -28 81 7 133 -4 165 -34 13 -12 22 -24 20
-26 -2 -3 -25 3 -50 11 -53 18 -138 21 -167 5 -26 -14 -14 -31 17 -23 13 3 31
3 40 0 15 -6 15 -8 -1 -26 -18 -20 -17 -20 61 -18 137 4 181 -8 242 -64 41
-37 61 -48 86 -48 21 0 40 -8 52 -21 10 -12 47 -39 81 -61 35 -22 71 -50 81
-63 10 -13 36 -28 58 -34 52 -14 122 -61 157 -106 15 -19 36 -35 46 -35 9 0
30 -13 46 -30 16 -16 37 -30 48 -30 10 0 52 -32 92 -71 56 -53 79 -70 97 -67
23 3 23 4 22 133 0 72 -6 252 -14 400 -18 371 -19 626 -2 633 7 2 17 1 22 -4
5 -5 19 -180 30 -389 24 -450 38 -666 46 -717 3 -20 0 -46 -6 -58 -15 -27 -4
-40 105 -125 85 -66 159 -108 212 -119 18 -4 39 -19 49 -34 28 -43 122 -138
195 -198 53 -43 72 -54 91 -49 16 4 33 -1 50 -14 14 -12 33 -21 42 -21 9 0 27
-18 41 -40 24 -38 45 -52 45 -30 0 5 -12 34 -27 65 -20 40 -24 58 -16 66 18
18 30 3 53 -67 12 -36 32 -77 45 -92 22 -25 23 -26 49 -9 25 17 26 17 36 -5
41 -102 50 -118 65 -118 9 0 37 -18 63 -40 56 -50 86 -59 112 -35 19 17 20 17
20 -4 0 -30 40 -67 86 -80 35 -10 41 -9 55 11 l17 21 16 -31 c17 -33 46 -43
46 -17 0 9 -9 34 -21 56 -20 39 -20 69 -1 69 17 0 52 -98 52 -144 0 -79 -13
-93 -99 -113 -67 -15 -199 -21 -256 -11 -33 5 -31 -36 2 -62 21 -16 37 -20 63
-17 60 8 265 64 298 81 17 9 39 16 49 16 44 0 471 -251 773 -453 250 -168 267
-177 339 -177 37 1 94 7 128 14 l63 13 297 -174 c289 -170 648 -388 1546 -938
397 -243 440 -272 463 -311 24 -42 54 -61 73 -50 22 14 60 -55 80 -147 31
-135 39 -144 162 -196 134 -56 247 -117 373 -201 122 -82 168 -125 84 -80 -29
16 -98 48 -152 70 -55 23 -113 52 -130 65 -17 13 -85 52 -151 87 -160 86 -225
123 -530 306 -143 86 -336 194 -429 240 -200 99 -349 187 -626 372 -113 75
-252 165 -310 200 -58 36 -136 87 -175 115 -131 96 -250 172 -595 380 -352
212 -478 293 -632 406 -203 149 -411 291 -475 322 -49 25 -55 26 -150 18 -54
-5 -119 -15 -144 -22 -42 -11 -49 -11 -82 10 -41 25 -57 13 -33 -24 21 -32 56
-40 109 -27 23 6 76 14 117 18 41 3 84 10 96 14 28 11 84 -23 84 -50 0 -4 -38
-15 -84 -25 -82 -17 -131 -17 -169 0 -30 13 -17 -34 15 -58 24 -18 31 -19 55
-7 15 7 63 16 106 20 57 5 86 13 109 30 27 20 33 21 56 9 14 -8 41 -29 60 -46
41 -39 35 -54 -34 -73 -44 -13 -159 -9 -196 5 -14 5 -18 2 -18 -14 0 -23 64
-61 102 -60 13 0 73 15 133 33 99 30 113 32 137 20 31 -16 98 -72 98 -83 0 -3
-35 -15 -78 -25 -74 -17 -107 -18 -174 -1 -34 9 -37 -6 -6 -34 31 -30 76 -35
144 -17 110 28 166 31 217 8 25 -11 50 -29 55 -39 10 -18 3 -21 -78 -41 -84
-20 -91 -21 -118 -5 -29 16 -62 13 -62 -7 0 -5 9 -19 20 -30 24 -24 61 -25
145 -5 76 19 186 19 228 1 18 -7 42 -25 55 -39 l23 -25 -28 -9 c-16 -6 -61
-16 -100 -23 -64 -12 -75 -11 -97 3 -45 30 -89 18 -59 -15 32 -35 83 -40 189
-18 135 28 170 26 228 -11 36 -22 46 -33 37 -42 -13 -13 -165 -15 -198 -3 -37
13 -31 -30 7 -49 36 -19 87 -19 165 0 33 8 76 15 95 15 34 0 80 -22 80 -39 0
-15 -82 -32 -143 -30 -69 3 -84 -12 -47 -46 25 -23 46 -23 192 0 110 17 118
17 142 1 14 -9 26 -20 26 -24 0 -9 -125 -32 -176 -32 -31 0 -35 -3 -32 -22 4
-31 43 -38 119 -22 35 7 96 16 134 20 60 5 73 4 94 -13 13 -11 21 -24 18 -30
-9 -15 -127 -36 -179 -31 -37 3 -43 0 -46 -17 -1 -11 3 -28 11 -38 12 -18 16
-18 97 4 142 37 255 28 299 -25 10 -12 8 -17 -17 -30 -16 -8 -59 -22 -96 -30
-64 -15 -69 -15 -106 4 -51 26 -80 26 -80 0 0 -25 69 -70 109 -70 45 0 187 36
213 54 31 22 81 20 103 -4 10 -11 16 -22 14 -24 -2 -2 -42 -16 -89 -31 -65
-20 -96 -25 -132 -21 -59 8 -72 -8 -34 -41 34 -29 48 -29 142 3 107 36 216 38
262 6 17 -13 32 -29 32 -36 0 -18 -149 -58 -201 -55 -38 3 -44 1 -44 -16 0
-11 14 -27 34 -39 l34 -20 36 21 c44 25 132 43 213 43 45 0 63 -5 78 -20 11
-11 20 -24 20 -28 0 -5 -37 -18 -81 -29 -65 -16 -90 -18 -126 -10 -51 12 -71
1 -50 -27 20 -28 90 -30 201 -7 117 25 155 26 182 7 30 -23 10 -32 -110 -50
-60 -9 -112 -19 -115 -21 -3 -3 5 -15 17 -27 21 -21 22 -21 89 -5 102 25 173
30 219 18 44 -12 107 -50 108 -65 1 -12 -88 -36 -137 -36 -21 0 -53 6 -72 14
-30 13 -35 13 -47 -1 -10 -13 -9 -18 11 -34 37 -30 87 -33 202 -14 112 18 162
13 189 -20 21 -25 -34 -38 -137 -31 -77 4 -93 3 -93 -9 0 -8 14 -22 32 -31 28
-14 50 -16 153 -9 172 11 189 9 264 -33 l66 -37 -65 -13 c-36 -7 -102 -14
-147 -15 -89 -2 -104 -13 -58 -43 17 -11 38 -15 72 -11 169 18 240 30 258 42
18 11 27 9 76 -17 31 -16 73 -43 93 -60 34 -28 36 -32 20 -41 -10 -6 -72 -12
-138 -15 -134 -5 -157 -13 -129 -45 10 -10 28 -23 41 -28 23 -9 159 9 281 36
l64 15 51 -31 c54 -34 70 -50 58 -61 -12 -12 -181 -35 -194 -26 -19 12 -86 10
-94 -3 -3 -6 3 -21 15 -33 19 -18 33 -21 109 -21 48 1 132 5 188 9 109 10 158
1 190 -35 24 -27 13 -35 -76 -55 -83 -19 -98 -20 -152 -9 -46 9 -51 -9 -15
-43 29 -27 50 -27 157 -1 138 33 198 35 253 10 26 -12 58 -26 72 -31 40 -15
30 -26 -42 -46 -86 -23 -168 -23 -211 0 -34 17 -34 17 -30 -5 2 -13 18 -34 37
-46 43 -29 105 -30 236 -3 53 11 109 20 124 20 27 0 161 -65 161 -78 0 -9
-178 -62 -209 -62 -13 0 -50 12 -82 26 -33 15 -62 24 -65 21 -22 -21 92 -107
142 -107 17 0 86 16 155 36 158 45 187 43 280 -21 39 -26 68 -53 66 -59 -2 -6
-33 -14 -68 -18 -35 -4 -96 -14 -136 -23 l-72 -16 -38 25 c-67 46 -117 27 -68
-24 34 -35 84 -60 121 -60 19 0 37 -11 62 -41 43 -50 101 -78 162 -79 25 0
106 14 181 32 119 27 140 30 167 19 43 -18 137 -105 128 -119 -10 -16 -97 -40
-172 -48 -56 -6 -67 -4 -109 20 -27 16 -57 26 -73 24 l-27 -3 33 -32 c18 -17
58 -46 89 -63 l56 -32 126 42 c69 23 149 44 177 47 46 5 56 2 105 -31 94 -63
122 -41 33 26 -27 21 -51 43 -53 49 -2 6 8 23 22 37 32 34 51 73 72 144 9 32
20 60 24 62 4 3 24 -9 43 -27 19 -18 59 -41 89 -51 30 -11 86 -36 124 -57 39
-21 124 -56 190 -79 66 -22 126 -45 134 -49 12 -8 10 -25 -12 -108 -15 -55
-27 -118 -27 -141 0 -36 3 -42 25 -48 14 -3 46 -3 71 1 50 7 50 7 83 121 27
91 47 111 99 96 63 -19 76 -42 82 -140 l5 -86 100 -43 c129 -54 222 -80 236
-66 6 6 14 26 18 45 8 36 22 39 103 23 37 -7 38 -7 57 39 22 49 31 53 91 36
19 -6 98 -21 175 -34 127 -22 214 -32 433 -52 50 -4 72 -10 72 -19 0 -48 103
-59 261 -29 93 17 107 25 85 44 -13 10 -29 10 -78 1 -53 -10 -69 -10 -100 3
-21 9 -47 16 -58 16 -45 0 -16 61 85 180 40 47 91 114 115 150 23 36 55 78 69
93 29 32 81 63 81 48 0 -15 -79 -129 -168 -239 -77 -97 -122 -167 -122 -192 0
-5 8 -10 18 -10 10 1 35 30 64 78 53 87 213 292 228 292 21 0 7 -25 -109 -196
-110 -162 -130 -204 -97 -204 11 0 121 162 311 457 54 83 86 115 102 100 9 -9
-71 -145 -192 -327 -63 -95 -114 -178 -112 -184 10 -31 43 6 157 177 124 186
210 295 139 177 -18 -30 -49 -77 -69 -105 -146 -200 -211 -328 -173 -342 40
-16 166 31 210 79 27 28 53 89 53 121 0 17 13 32 51 57 61 39 112 107 134 177
15 47 16 92 6 475 -6 233 -16 495 -22 583 -10 123 -10 229 -1 455 11 304 8
366 -24 435 -15 35 -18 70 -19 260 -2 243 -3 250 -70 364 -21 35 -48 90 -61
123 -118 303 -598 686 -1199 959 -99 44 -220 93 -270 108 -49 15 -126 44 -170
64 -44 19 -132 50 -196 66 -141 38 -220 66 -454 164 -99 42 -219 87 -266 101
-47 14 -93 32 -103 39 -9 7 -27 42 -39 77 -32 96 -168 311 -231 366 -51 45
-194 124 -225 124 -9 0 -178 54 -376 120 -389 130 -709 230 -900 280 -66 18
-275 76 -465 130 -190 54 -408 115 -485 135 l-140 37 -205 -5 c-230 -7 -359
-24 -444 -62 -112 -50 -116 -49 -364 58 -121 53 -276 116 -344 141 -68 25
-159 59 -203 77 -44 17 -210 75 -370 129 -159 54 -341 116 -403 139 -62 23
-159 55 -215 71 -56 16 -187 56 -292 89 -104 34 -202 61 -217 61 -17 0 -28 5
-27 13 3 28 -2 37 -25 37 -43 0 -159 41 -267 96 -59 29 -207 95 -330 147 -516
218 -754 322 -927 408 -185 91 -424 199 -720 325 -89 37 -162 72 -162 76 0 15
47 51 123 96 69 40 78 48 72 69 -6 25 5 29 33 12 13 -8 42 -1 127 31 67 26
134 44 170 47 37 3 87 16 130 36 55 24 82 31 127 29 46 -1 60 3 71 18 14 21
61 40 154 66 35 9 67 22 73 29 7 8 25 11 48 8 27 -4 56 3 100 21 34 14 67 26
75 26 7 0 24 12 38 26 34 36 60 49 69 34 10 -16 270 -14 308 2 15 6 66 12 113
12 76 1 89 4 120 27 38 29 74 34 349 49 85 4 171 13 190 19 19 6 62 11 95 11
49 0 68 5 95 25 21 16 47 25 70 25 47 0 60 14 49 52 -4 17 -11 83 -14 147 -8
148 -21 216 -51 268 -29 51 -30 53 -1 53 30 0 67 -27 67 -49 0 -10 11 -28 25
-41 24 -23 25 -25 27 -219 l3 -196 85 -5 c47 -3 98 -12 113 -20 24 -12 35 -11
84 4 35 11 99 20 169 22 64 2 130 10 151 18 25 9 98 16 215 20 177 5 399 25
818 72 124 14 281 28 350 31 69 3 130 10 137 15 6 5 58 14 115 19 111 11 141
24 114 52 -30 29 -118 39 -282 31 -148 -6 -157 -8 -221 -40 -37 -19 -81 -34
-99 -34 l-32 0 -7 176 c-4 96 -5 177 -2 180 3 3 47 14 98 25 77 17 155 22 441
29 191 5 352 11 358 15 5 3 122 12 258 20 137 9 271 19 298 24 27 5 52 6 57 2
13 -13 27 -121 27 -211 0 -93 7 -114 36 -108 17 3 20 17 25 122 5 83 3 134 -6
168 -13 51 -8 59 18 31 12 -14 16 -50 19 -171 2 -131 6 -155 19 -163 10 -5 73
-5 150 1 74 5 249 12 389 15 284 6 500 22 515 36 21 21 -21 30 -110 25 -142
-9 -543 -25 -736 -29 l-176 -5 1 132 c1 106 4 132 16 138 8 4 239 7 513 7 442
1 498 3 504 17 3 8 0 21 -6 27 -9 9 -6 16 11 29 51 38 24 40 -529 41 -416 1
-533 -2 -552 -12 -38 -21 -11 -33 78 -35 89 -2 113 -11 55 -21 -22 -4 -53 -10
-71 -15 -23 -6 -35 -4 -43 5 -6 7 -27 21 -46 30 -33 15 -37 15 -53 0 -17 -15
-22 -14 -68 15 -47 29 -58 32 -159 35 -60 2 -179 -2 -264 -10z m200 -45 c-19
-5 -78 -11 -130 -15 -52 -3 -139 -11 -193 -16 -99 -10 -142 -4 -96 14 21 8
259 23 404 24 47 1 48 1 15 -7z m-536 -29 c19 -7 18 -8 -5 -15 -13 -3 -123
-11 -244 -16 -131 -6 -252 -17 -300 -28 -77 -16 -304 -20 -328 -5 -27 16 26
27 150 30 76 2 224 12 328 22 200 20 367 25 399 12z m-1130 -91 c53 0 -5 -11
-130 -24 -249 -27 -415 -38 -624 -41 -135 -2 -231 -9 -280 -19 -98 -20 -265
-18 -265 4 0 28 115 39 406 40 197 0 334 6 480 20 212 21 340 29 374 23 11 -1
29 -3 39 -3z m255 -69 c11 -7 13 -26 8 -91 -4 -50 -2 -100 4 -127 11 -40 9
-46 -16 -83 -30 -43 -40 -47 -67 -26 -14 10 -34 9 -115 -5 -54 -10 -132 -21
-173 -24 -60 -6 -79 -12 -95 -30 -18 -20 -37 -24 -180 -39 -314 -31 -313 -31
-338 -8 -20 19 -28 20 -102 12 -44 -5 -133 -14 -197 -19 -70 -6 -130 -17 -148
-26 -41 -21 -72 -16 -86 15 -7 14 -13 93 -15 185 l-4 159 43 13 c56 16 232 31
497 43 116 5 266 16 335 24 210 26 623 43 649 27z m-1847 -21 c37 -11 68 -33
68 -50 0 -17 -234 -51 -725 -105 -176 -19 -344 -40 -374 -45 -90 -16 -103 -14
-129 26 -13 19 -37 41 -54 48 -41 18 -17 26 75 26 71 0 364 31 482 50 33 6
150 17 260 25 110 9 216 19 235 24 49 13 119 13 162 1z m1931 -71 c3 -11 3
-37 0 -57 -5 -30 -8 -33 -14 -17 -11 28 -11 95 0 95 5 0 11 -9 14 -21z m-1801
-58 c16 -15 29 -124 26 -222 l-3 -102 -38 -13 c-21 -7 -90 -18 -153 -23 -63
-6 -150 -17 -192 -25 -42 -8 -134 -20 -205 -26 -70 -6 -160 -19 -200 -29 -42
-10 -95 -16 -127 -13 -30 2 -112 -6 -183 -17 -70 -12 -134 -21 -142 -21 -12 0
-15 16 -15 80 0 45 -5 124 -11 176 -6 53 -8 98 -5 101 9 9 88 20 496 68 212
25 435 54 495 65 106 18 239 19 257 1z m-1509 -54 c18 -8 38 -21 45 -30 12
-14 9 -17 -20 -21 -18 -3 -172 -28 -343 -56 -170 -28 -366 -61 -435 -74 -192
-37 -200 -37 -373 -21 -99 10 -192 14 -239 10 -54 -5 -78 -4 -78 4 0 6 3 11 8
11 4 0 180 29 392 64 317 53 586 94 785 119 78 10 228 6 258 -6z m197 -128
c20 -96 27 -264 12 -273 -5 -3 -12 59 -15 137 -4 80 -13 164 -22 192 -18 60
-18 62 -5 49 6 -6 20 -53 30 -105z m-72 -141 l2 -168 -30 -19 c-17 -10 -69
-28 -115 -40 -47 -13 -101 -34 -120 -47 -29 -19 -49 -24 -104 -24 -50 0 -108
-12 -225 -45 -87 -25 -166 -45 -175 -45 -10 0 -45 -9 -79 -21 -57 -19 -87 -43
-117 -93 -5 -9 -23 -18 -40 -19 -27 -2 -30 1 -32 28 0 17 -8 57 -16 90 -16 61
-23 175 -19 322 l2 82 73 15 c120 25 389 75 442 82 28 3 120 19 205 34 185 35
207 38 285 36 l60 -1 3 -167z m-1171 12 c36 -13 50 -38 31 -55 -17 -16 -340
-165 -443 -204 -94 -37 -116 -38 -198 -10 -54 19 -85 21 -239 21 -97 0 -187
-3 -199 -7 -21 -7 -22 -6 -10 8 7 9 52 28 99 43 47 14 148 57 224 95 81 41
173 78 221 91 135 35 437 45 514 18z m53 -125 c9 -11 11 -36 7 -85 -3 -38 -1
-85 4 -104 6 -21 6 -49 1 -68 -5 -19 -4 -54 1 -82 14 -82 9 -89 -98 -130 -153
-58 -180 -64 -206 -40 -35 31 -49 70 -49 133 0 33 -5 71 -11 85 -10 21 -18 24
-54 23 -34 -2 -49 4 -69 22 -14 14 -26 30 -26 36 0 6 46 30 103 53 56 24 163
71 237 106 74 35 138 64 141 65 4 1 12 -6 19 -14z m-809 -170 c5 -3 50 -63
100 -133 51 -70 125 -169 166 -219 41 -51 73 -98 71 -105 -5 -13 -156 -36
-244 -37 l-52 -1 -59 93 c-78 120 -213 363 -213 382 0 8 10 17 23 20 60 13
185 13 208 0z m-282 -42 c10 -21 56 -99 101 -173 82 -135 132 -227 144 -266 6
-18 -2 -24 -66 -49 -40 -15 -90 -38 -110 -51 l-38 -24 -23 37 c-29 48 -47 92
-95 228 -22 61 -54 140 -71 177 -44 90 -40 107 29 135 82 33 106 31 129 -14z
m418 26 c15 -6 63 -31 107 -57 74 -44 83 -52 156 -162 42 -63 91 -140 109
-171 l31 -56 -43 -6 c-24 -3 -53 -4 -65 0 -12 3 -55 46 -95 97 -72 89 -257
349 -257 360 0 9 26 7 57 -5z m-521 -418 c20 -53 52 -124 71 -158 26 -47 33
-72 32 -105 -2 -24 1 -198 5 -388 4 -208 3 -357 -2 -375 -11 -36 -5 -52 -81
200 -64 212 -85 293 -96 363 -6 38 -4 47 19 70 24 26 25 32 23 134 -2 95 -4
109 -24 130 -25 27 -29 76 -16 198 8 78 16 70 69 -69z m877 -80 c49 -7 105
-26 201 -70 73 -33 234 -103 357 -155 123 -52 303 -133 399 -179 186 -90 317
-148 740 -327 146 -62 353 -155 460 -207 l195 -95 -60 -19 c-33 -10 -128 -32
-212 -49 -185 -36 -153 -43 -495 121 -136 66 -250 119 -255 119 -4 0 -277 135
-608 299 -330 165 -647 320 -705 346 -58 26 -161 77 -229 113 -105 55 -120 66
-105 75 15 8 140 27 239 35 6 1 41 -3 78 -7z m-481 -65 c35 -13 90 -39 123
-58 80 -45 577 -292 960 -476 331 -159 1121 -575 1119 -589 -1 -4 -44 -26 -95
-48 -52 -22 -112 -50 -134 -62 -57 -30 -119 -100 -139 -159 -25 -72 -41 -99
-56 -96 -14 3 -1473 875 -1806 1078 -215 132 -224 141 -224 220 0 81 51 162
125 195 51 24 53 24 127 -5z m18 -486 c74 -43 268 -159 430 -257 162 -99 365
-220 450 -268 85 -48 250 -147 365 -220 245 -154 361 -222 453 -269 37 -19 78
-44 91 -55 14 -12 29 -20 35 -18 6 2 14 34 18 71 4 44 15 81 32 110 29 50 63
72 52 34 -4 -13 -11 -91 -16 -174 -9 -159 -18 -224 -29 -224 -13 0 -293 174
-461 286 -91 61 -237 153 -325 204 -370 216 -862 530 -1175 748 -129 90 -156
113 -158 136 l-3 27 53 -27 c29 -15 114 -62 188 -104z m-158 -27 c51 -37 56
-47 33 -77 -8 -11 -15 -32 -15 -47 0 -42 -17 -44 -71 -8 l-49 34 0 74 0 73 27
-7 c15 -3 49 -22 75 -42z m270 -181 c63 -45 77 -59 72 -76 -31 -131 -34 -135
-64 -116 -11 7 -14 25 -12 74 3 63 -12 115 -38 131 -19 12 -40 -17 -40 -55 0
-70 -51 -75 -86 -8 -12 24 -14 36 -5 55 6 13 11 40 11 59 l0 34 43 -21 c23
-12 77 -47 119 -77z m-304 -68 c31 -20 107 -74 168 -120 61 -45 144 -104 185
-130 41 -27 290 -212 554 -413 709 -539 928 -711 941 -738 4 -10 8 -108 9
-218 1 -186 6 -235 25 -235 4 0 10 62 13 138 4 75 11 196 18 267 6 74 9 204 6
302 -6 178 -2 196 34 169 41 -30 48 -57 49 -201 0 -77 5 -246 10 -375 11 -278
13 -540 3 -540 -4 0 -21 10 -39 22 -38 26 -87 98 -104 152 -16 51 -70 103
-216 211 -65 49 -162 126 -214 173 -101 91 -146 117 -167 100 -8 -7 -13 -36
-13 -79 0 -79 -9 -85 -62 -42 -67 54 -108 97 -108 115 0 9 -9 22 -20 28 -17 9
-20 22 -21 73 -1 34 -4 73 -8 87 -10 35 -86 94 -376 290 -137 93 -295 205
-350 249 -55 44 -134 106 -175 138 -105 80 -149 122 -179 168 -25 39 -26 45
-29 243 -2 111 -1 202 2 202 4 0 33 -16 64 -36z m550 -97 c47 -31 48 -34 27
-61 -9 -12 -15 -42 -15 -78 0 -65 -9 -71 -61 -41 -42 25 -65 78 -50 119 7 18
9 49 5 73 l-7 42 29 -13 c16 -7 48 -25 72 -41z m1540 -33 c41 -20 72 -38 69
-40 -6 -6 -151 56 -178 77 l-24 19 30 -10 c17 -6 63 -27 103 -46z m-1364 -81
c33 -20 94 -58 134 -85 l72 -49 0 -99 c0 -57 -4 -102 -10 -105 -14 -9 -89 36
-185 111 l-81 62 -2 73 c-2 39 -3 74 -4 78 -2 19 3 51 8 51 4 0 34 -17 68 -37z
m1712 -88 c17 -7 35 -18 38 -24 10 -16 4 -14 -59 13 -85 38 -67 47 21 11z
m529 5 c-16 -4 -52 -8 -80 -7 l-50 0 40 7 c22 4 58 7 80 7 38 1 38 0 10 -7z
m549 -96 c654 -201 1043 -337 1497 -522 229 -93 389 -166 389 -177 0 -2 -15
-12 -32 -21 -18 -9 -62 -45 -98 -78 -101 -96 -85 -92 -191 -45 -52 22 -184 77
-294 121 -110 44 -265 108 -345 143 -350 153 -568 240 -930 371 -292 106 -489
180 -556 210 -52 23 -56 27 -39 37 10 5 78 20 150 33 71 12 132 22 134 23 2 1
144 -42 315 -95z m-639 -68 c62 -32 216 -92 355 -140 554 -190 722 -252 865
-316 83 -37 175 -77 205 -88 30 -11 120 -53 199 -93 79 -40 239 -116 354 -169
116 -53 215 -104 221 -113 9 -13 4 -31 -24 -81 -28 -54 -40 -66 -71 -75 -99
-30 -183 -141 -184 -243 0 -65 15 -89 43 -71 13 8 16 22 14 62 -2 28 2 67 8
85 12 37 90 116 114 116 13 0 13 -5 0 -42 -21 -60 -28 -156 -15 -204 16 -58
43 -88 93 -103 24 -7 142 -60 263 -116 121 -57 254 -113 295 -126 100 -30 174
-62 430 -184 118 -56 239 -110 268 -120 30 -9 99 -39 155 -65 56 -26 120 -53
142 -59 22 -7 56 -20 75 -30 19 -10 69 -31 110 -46 41 -16 89 -37 105 -47 35
-21 88 -24 103 -5 16 20 20 78 10 146 -11 73 0 152 40 271 28 86 83 200 118
247 27 35 31 65 11 81 -21 18 -240 101 -284 108 -38 6 -41 4 -73 -35 -37 -48
-49 -48 -25 -1 9 17 15 43 13 58 -3 24 -13 30 -118 68 -63 23 -138 45 -166 49
-41 6 -54 12 -67 35 l-17 27 48 -9 c26 -5 59 -7 73 -4 21 4 29 0 37 -19 7 -16
24 -26 54 -33 24 -6 79 -26 123 -46 44 -20 89 -36 101 -36 12 0 39 13 60 28
21 16 53 37 69 47 29 19 29 18 -7 -23 -25 -27 -38 -52 -38 -70 0 -25 6 -30 63
-50 34 -11 94 -32 132 -46 97 -35 128 -34 177 8 22 19 120 75 219 123 l178 89
43 -16 c63 -23 56 -43 -17 -52 -80 -10 -116 -23 -210 -72 -131 -69 -239 -150
-291 -219 -96 -126 -150 -277 -156 -430 -2 -57 1 -70 19 -89 21 -20 21 -23 6
-51 -45 -89 56 -227 166 -227 43 0 52 6 126 71 173 152 324 252 463 308 l80
33 71 -31 c38 -17 123 -52 188 -77 65 -25 171 -71 235 -100 65 -30 188 -81
275 -114 86 -33 158 -62 160 -64 2 -2 -35 -29 -81 -60 -204 -136 -322 -303
-362 -515 -11 -56 -24 -95 -32 -99 -21 -8 -205 75 -587 266 -526 262 -1883
875 -2180 984 -60 22 -208 87 -327 144 -203 96 -432 194 -455 194 -6 0 -93 42
-194 94 -204 105 -414 201 -744 341 -289 122 -867 398 -967 461 -32 21 -38 30
-38 60 0 19 8 51 19 72 38 75 37 80 -11 102 -74 34 -146 22 -107 -17 9 -9 8
-18 -5 -37 -20 -32 -21 -75 -1 -83 20 -7 24 -3 40 43 14 43 43 63 31 23 -21
-76 -27 -133 -16 -155 24 -43 45 -55 330 -176 52 -22 139 -65 194 -96 125 -69
213 -110 616 -287 405 -178 491 -218 610 -282 52 -28 113 -56 135 -63 81 -26
189 -72 419 -180 130 -61 284 -127 342 -146 58 -20 210 -83 337 -141 128 -57
394 -177 592 -265 553 -247 1363 -628 1915 -901 37 -18 46 -27 48 -53 5 -49
-16 -59 -85 -39 -93 27 -251 94 -498 213 -127 61 -260 120 -295 132 -73 25
-102 39 -180 86 -82 50 -1270 638 -1450 718 -85 38 -245 103 -355 146 -110 42
-310 127 -445 187 -135 61 -292 127 -350 148 -58 21 -218 95 -355 164 -138 69
-319 159 -403 200 -97 46 -159 82 -169 98 -9 13 -22 22 -29 19 -17 -7 -138 41
-257 101 -49 24 -173 82 -277 128 -104 46 -233 106 -287 133 -54 28 -134 62
-178 77 -44 14 -131 51 -192 81 -98 47 -115 59 -132 93 -24 46 -43 59 -150
100 -62 24 -87 29 -95 21 -8 -8 -6 -15 7 -24 21 -16 22 -26 2 -26 -8 0 -15 -7
-15 -14 0 -9 40 -34 95 -60 65 -31 95 -51 96 -63 1 -10 2 -53 3 -95 1 -88 6
-96 81 -123 28 -10 93 -39 145 -65 52 -26 106 -50 120 -54 14 -4 104 -46 200
-93 566 -277 694 -346 666 -356 -33 -13 -37 -55 -30 -281 l7 -221 81 -38 c45
-20 96 -37 114 -37 39 0 38 -3 17 185 -18 159 -19 219 -3 244 9 15 8 24 -5 45
-10 14 -13 26 -7 26 13 0 445 -214 513 -254 26 -16 46 -33 43 -40 -27 -63 -29
-92 -19 -215 6 -69 8 -156 6 -192 -5 -66 -5 -67 33 -109 21 -23 58 -55 82 -72
24 -16 42 -32 39 -34 -7 -8 -139 57 -331 163 -105 59 -229 124 -276 147 -131
62 -710 365 -742 387 -15 11 -67 36 -114 54 -48 19 -148 68 -223 109 -75 41
-191 102 -258 135 -137 68 -128 56 -138 191 -4 47 -13 135 -21 195 -9 61 -17
166 -19 235 -4 117 -6 126 -27 141 -110 78 -159 95 -166 57 -2 -12 11 -24 40
-39 24 -12 58 -32 76 -46 30 -23 32 -28 32 -86 0 -34 7 -120 15 -192 8 -71 18
-191 21 -265 3 -74 12 -170 20 -214 17 -94 19 -266 3 -266 -6 0 -30 13 -54 30
-24 16 -54 31 -67 32 -43 5 -25 -25 42 -71 36 -24 69 -50 73 -57 11 -18 37
-18 65 2 21 14 22 22 22 144 l0 129 63 -25 c178 -72 759 -376 962 -504 115
-73 346 -200 517 -286 207 -103 507 -263 683 -364 88 -50 201 -111 252 -135
50 -25 116 -60 145 -78 29 -19 145 -81 258 -137 113 -56 248 -128 300 -160
103 -62 865 -446 1200 -605 290 -137 555 -271 625 -317 86 -56 34 -37 -148 54
-87 43 -192 92 -233 108 -42 17 -164 71 -273 120 -196 90 -221 99 -221 81 0
-28 182 -126 410 -221 308 -129 1370 -661 1370 -687 0 -8 -6 -16 -14 -19 -18
-7 -404 178 -876 419 -195 100 -399 204 -453 231 -73 37 -100 47 -109 38 -18
-18 6 -38 106 -87 50 -25 120 -62 156 -83 36 -21 146 -76 244 -122 99 -47 207
-101 241 -121 34 -20 179 -96 323 -169 144 -74 260 -135 258 -137 -6 -7 -78
23 -246 102 -96 45 -227 104 -290 129 -110 45 -175 79 -443 230 -65 36 -123
66 -128 66 -5 0 -9 -8 -9 -18 0 -11 24 -36 58 -61 58 -44 364 -197 642 -323
292 -132 574 -285 545 -295 -25 -8 -822 359 -961 442 -97 59 -214 94 -214 65
0 -5 54 -37 121 -71 67 -33 119 -63 116 -65 -3 -3 -27 4 -52 15 -54 24 -89 27
-83 9 3 -7 72 -48 154 -90 151 -78 245 -122 544 -253 271 -118 393 -186 372
-207 -7 -7 -20 -7 -39 0 -164 62 -236 94 -408 181 -109 56 -204 106 -211 111
-6 6 -62 35 -124 66 -62 31 -135 71 -162 90 -28 18 -80 43 -117 54 -39 11 -87
35 -114 56 -26 20 -95 62 -154 93 -60 31 -184 98 -278 148 -93 51 -206 106
-250 124 -44 17 -102 46 -130 64 -27 17 -160 94 -295 170 -135 75 -297 170
-360 209 -63 40 -149 91 -190 113 -42 23 -204 116 -360 208 -155 91 -353 205
-439 252 -86 47 -232 130 -326 183 -291 166 -519 280 -559 280 -10 0 -14 -13
-14 -47 1 -55 11 -73 44 -73 15 0 35 -15 60 -46 32 -38 42 -45 66 -42 16 3 33
-1 39 -9 17 -20 49 -16 49 6 0 31 16 33 62 10 152 -76 802 -434 890 -490 58
-38 223 -133 365 -212 142 -79 298 -169 347 -201 48 -32 183 -112 300 -178
116 -67 245 -142 286 -168 42 -26 108 -61 148 -78 41 -17 137 -66 215 -110 78
-44 194 -105 257 -137 101 -51 154 -82 287 -173 44 -30 49 -45 25 -79 -11 -15
-28 -54 -37 -86 -9 -32 -22 -60 -31 -64 -26 -10 -400 210 -1214 717 -289 180
-610 378 -715 440 -104 62 -258 157 -341 211 -83 54 -202 124 -265 157 -63 32
-204 116 -314 187 -202 129 -361 220 -490 280 -73 33 -125 82 -125 116 0 27
17 23 24 -6 4 -16 13 -25 27 -25 17 0 20 5 17 38 -3 32 -6 37 -28 37 -21 0
-26 6 -30 35 -5 32 -13 39 -130 108 -69 41 -199 120 -290 177 -91 57 -217 131
-280 165 -140 76 -259 153 -321 207 -74 64 -117 86 -165 86 -48 0 -69 -13 -78
-48 -4 -14 -12 -25 -19 -25 -21 0 -187 114 -244 167 l-51 48 -28 485 c-29 493
-34 817 -14 920 20 108 73 167 187 210 90 34 343 89 388 85 22 -2 89 -28 150
-59z m-1773 11 c32 -24 34 -30 12 -48 -13 -11 -15 -26 -9 -88 5 -57 3 -81 -7
-94 -13 -18 -15 -18 -35 0 -19 16 -22 33 -28 142 l-7 123 23 -7 c13 -4 36 -17
51 -28z m2113 -93 c19 -14 19 -14 -1 -14 -27 0 -124 40 -124 51 0 10 99 -19
125 -37z m-2002 25 c33 -17 97 -81 91 -91 -3 -5 -10 -52 -15 -105 -5 -53 -11
-98 -13 -100 -10 -10 -62 24 -73 47 -10 21 -24 260 -15 260 2 0 13 -5 25 -11z
m257 -162 c36 -18 138 -81 226 -140 l161 -107 7 -47 c3 -25 6 -99 6 -164 0
-109 -2 -119 -18 -119 -41 0 -50 29 -62 185 -12 155 -22 188 -60 200 -42 13
-50 -9 -50 -131 0 -76 -4 -114 -11 -114 -6 0 -25 10 -42 22 -51 35 -211 162
-219 173 -8 11 -14 64 -23 193 -4 63 -2 82 7 82 7 0 42 -15 78 -33z m4852
-355 c68 -22 141 -45 163 -50 22 -6 71 -20 110 -31 38 -12 96 -21 128 -21 51
0 64 -4 92 -29 41 -36 218 -81 316 -81 59 0 69 -3 82 -23 18 -28 66 -47 206
-82 58 -15 121 -33 140 -41 25 -10 51 -13 84 -9 43 6 50 4 71 -18 16 -17 74
-41 207 -84 103 -34 206 -74 233 -92 28 -17 87 -42 132 -56 88 -27 109 -41 72
-49 -44 -10 -355 -46 -393 -46 -24 0 -105 26 -214 69 -97 38 -311 115 -476
171 -165 56 -349 119 -410 140 -60 21 -299 102 -529 180 -231 78 -428 146
-439 151 -33 18 -4 30 94 39 140 12 197 6 331 -38z m-3757 -26 c119 -45 204
-82 488 -215 131 -61 240 -111 242 -111 12 0 557 -261 935 -447 239 -118 482
-233 540 -255 58 -22 166 -68 240 -103 74 -35 170 -78 213 -94 42 -17 109 -47
149 -67 39 -19 116 -51 172 -71 295 -102 966 -413 1443 -669 405 -217 433
-230 628 -309 105 -42 267 -114 360 -160 94 -46 239 -111 323 -144 84 -34 194
-80 245 -102 50 -23 124 -52 162 -66 39 -14 129 -53 200 -86 172 -79 315 -134
570 -217 238 -77 644 -191 785 -220 178 -37 871 -63 1070 -41 164 19 289 49
340 81 70 44 198 103 210 95 6 -4 10 -50 10 -115 0 -107 0 -109 -27 -128 -81
-57 -361 -153 -528 -182 -183 -31 -456 -53 -594 -48 -154 6 -546 59 -696 94
-239 56 -617 195 -1002 368 -104 46 -264 116 -358 156 -93 39 -332 152 -530
250 -198 99 -409 200 -470 225 -105 44 -207 94 -1075 516 -705 342 -985 476
-1170 559 -102 45 -286 131 -410 190 -124 59 -362 167 -530 240 -412 178 -663
302 -1055 520 -181 101 -395 214 -475 252 -80 38 -172 83 -205 101 -33 17
-114 50 -180 72 l-120 40 -3 63 c-2 34 1 62 5 62 4 0 49 -15 98 -34z m3043
-93 c2 -12 12 -25 23 -28 10 -4 19 -13 19 -21 0 -16 -38 -34 -57 -27 -7 3 -15
-2 -19 -10 -3 -9 -13 -18 -21 -22 -22 -8 -113 24 -113 39 0 19 40 52 90 75 54
25 74 23 78 -6z m-216 -26 c-12 -13 -22 -35 -22 -50 0 -23 -4 -27 -29 -27 -57
0 -50 37 13 75 52 31 66 32 38 2z m398 -25 c0 -4 -24 -23 -54 -41 -103 -62
-113 -100 -36 -138 56 -27 42 -29 -30 -4 -38 14 -61 16 -78 10 -13 -5 -28 -7
-33 -3 -23 14 -4 43 60 91 101 75 171 110 171 85z m165 -32 c0 -11 -13 -15
-52 -16 -35 -1 -53 3 -53 11 0 21 13 26 60 23 32 -2 45 -7 45 -18z m450 -15
c44 -19 113 -44 153 -55 71 -20 132 -45 132 -55 0 -3 -20 -5 -45 -5 -33 0 -51
6 -67 22 -26 26 -213 88 -268 88 -33 0 -40 3 -40 20 0 30 42 25 135 -15z
m-583 -52 c12 -45 34 -60 56 -39 29 26 42 19 42 -20 l0 -37 -44 6 c-24 4 -69
16 -100 28 -47 17 -57 25 -54 41 3 21 64 61 82 55 6 -2 14 -17 18 -34z m-441
-28 c96 -33 105 -46 68 -100 -44 -66 -73 -135 -99 -240 l-27 -110 -33 2 c-34
1 -116 47 -133 74 -11 17 15 114 39 146 11 16 14 13 20 -26 7 -43 33 -81 55
-81 5 0 16 16 24 34 8 19 21 39 29 43 15 8 48 141 39 156 -9 15 -22 6 -42 -29
-16 -26 -26 -34 -40 -29 -14 4 -20 -1 -25 -20 -10 -40 -29 -18 -23 27 3 26 22
61 54 103 26 36 49 65 49 65 1 0 21 -7 45 -15z m809 -71 c3 -19 15 -33 33 -42
49 -24 27 -62 -36 -62 -45 0 -137 37 -137 55 0 16 26 38 75 63 49 26 59 24 65
-14z m-1085 -164 l-34 -144 22 -24 c28 -30 55 -44 157 -81 45 -17 88 -36 96
-42 30 -25 42 -4 37 68 -4 55 0 85 22 158 25 82 71 182 81 173 2 -2 -8 -31
-21 -64 -35 -87 -55 -168 -62 -256 -6 -74 -5 -77 22 -102 15 -14 52 -35 82
-46 29 -11 71 -28 91 -39 20 -10 43 -16 49 -14 7 3 26 -5 42 -16 16 -12 38
-21 48 -21 11 0 55 -18 99 -41 61 -31 87 -39 112 -35 22 3 35 1 38 -9 6 -14
38 -31 172 -91 71 -32 87 -36 103 -26 22 14 39 8 39 -13 0 -7 21 -21 48 -30
80 -30 175 -75 209 -100 35 -28 58 -25 67 8 l6 22 13 -23 c8 -16 42 -36 102
-61 50 -21 115 -52 146 -70 54 -30 57 -34 62 -78 6 -54 -1 -113 -14 -113 -13
0 -101 36 -309 127 -107 47 -280 119 -385 160 -104 41 -278 113 -385 158 -107
46 -249 104 -315 130 -66 25 -208 89 -317 142 l-196 96 -11 43 c-22 88 -6 195
45 297 29 56 64 110 69 105 2 -2 -12 -68 -30 -148z m833 107 c24 -19 11 -25
-30 -14 -44 10 -68 24 -68 37 0 10 80 -9 98 -23z m645 10 c-4 -7 -20 -30 -35
-51 -31 -43 -25 -66 19 -66 59 0 27 -66 -38 -76 -36 -6 -128 23 -165 51 -18
15 -17 17 25 55 71 65 222 132 194 87z m354 8 c20 -8 33 -18 30 -21 -7 -8 -75
14 -82 27 -9 13 11 11 52 -6z m-1217 -5 c75 -21 77 -27 28 -110 -24 -40 -49
-75 -56 -78 -6 -2 -19 12 -28 32 -22 46 -39 51 -63 20 -21 -26 -41 -25 -41 3
0 9 14 38 30 65 17 26 30 55 30 63 0 18 47 20 100 5z m640 -37 c0 -4 -21 -26
-46 -50 -38 -35 -46 -47 -41 -69 4 -25 3 -26 -30 -21 -34 6 -73 31 -73 48 0 5
6 6 14 3 18 -7 47 8 109 58 47 37 67 46 67 31z m-300 -81 c14 -5 32 -17 39
-26 12 -14 11 -20 -11 -44 -35 -37 -72 -113 -97 -202 -12 -41 -31 -103 -43
-138 -20 -63 -20 -63 -52 -56 -51 11 -106 43 -116 68 -11 29 -2 66 15 66 6 0
20 9 30 20 14 16 26 19 51 14 35 -6 35 -5 49 64 6 31 9 33 36 27 39 -9 39 14
-2 44 -37 28 -56 22 -67 -20 -10 -40 -27 -47 -42 -18 -26 48 -7 128 51 210 18
26 19 26 76 14 32 -7 69 -17 83 -23z m910 3 c-8 -10 -25 -15 -44 -13 -27 3
-33 -2 -45 -30 -17 -37 -35 -37 -39 1 -4 29 12 40 82 61 46 14 66 6 46 -19z
m-138 -90 c9 -63 24 -77 48 -47 10 12 20 28 23 35 3 9 9 9 23 1 28 -16 25 -63
-6 -85 -24 -18 -27 -18 -105 4 -111 32 -128 42 -114 68 12 24 98 81 114 76 5
-2 13 -25 17 -52z m-1166 -22 c15 -35 14 -41 -17 -140 -38 -115 -32 -112 -119
-70 -43 21 -45 24 -42 62 5 76 9 83 44 81 28 -1 33 3 36 24 3 23 56 79 75 80
4 0 15 -17 23 -37z m706 -39 c15 -8 29 -17 31 -21 5 -8 -55 -118 -77 -140 -19
-21 -54 12 -67 63 -19 73 -39 52 -39 -41 0 -65 -7 -85 -30 -85 -20 0 -50 40
-50 67 0 18 71 165 91 190 11 12 87 -5 141 -33z m928 7 c-25 -16 -56 -40 -69
-55 -14 -14 -30 -26 -37 -26 -15 0 -24 -23 -24 -62 0 -29 -2 -30 -31 -24 -95
19 -113 59 -47 104 79 54 170 91 223 91 30 1 30 0 -15 -28z m1194 -50 c3 -5
-1 -14 -9 -21 -23 -19 -18 -49 25 -170 28 -77 40 -128 40 -165 l0 -53 -87 -7
c-123 -10 -288 -39 -492 -86 -140 -33 -216 -58 -370 -121 -212 -87 -271 -109
-373 -138 l-67 -19 -7 35 c-14 76 25 218 86 312 21 33 42 62 48 66 5 3 -1 -29
-15 -72 -18 -55 -26 -101 -27 -162 -1 -78 1 -85 19 -88 47 -7 409 125 595 216
49 24 55 30 53 57 -3 57 -62 249 -88 284 l-25 36 27 12 c16 7 40 12 56 13 24
0 26 -2 15 -19 -10 -16 -6 -36 20 -113 18 -51 38 -124 45 -163 l12 -70 35 1
c19 1 107 11 195 23 88 13 189 25 225 28 36 3 71 10 78 16 22 17 6 81 -43 182
-24 50 -47 102 -50 116 -5 19 -16 29 -37 35 -39 11 -47 31 -16 37 43 8 127 7
132 -2z m-1853 -71 c35 -11 75 -28 88 -39 l24 -18 -20 -29 c-55 -76 -153 -312
-153 -365 0 -46 -137 -3 -165 52 -22 41 -19 58 12 70 16 6 36 17 45 26 9 8 21
12 26 9 25 -15 19 31 -10 84 l-32 58 37 58 c21 33 43 71 50 87 14 32 17 33 98
7z m1059 -37 c0 -7 -43 -23 -130 -50 -23 -7 21 27 55 43 33 15 75 18 75 7z
m-3974 -42 l31 -19 8 -133 c9 -134 9 -219 0 -228 -11 -10 -86 21 -99 42 -14
23 -29 277 -19 330 6 33 34 36 79 8z m2579 -7 c0 -5 -17 -60 -38 -121 -37
-109 -40 -113 -68 -113 -15 0 -49 10 -74 22 -44 22 -46 24 -43 63 3 34 7 41
28 43 36 6 109 60 132 98 16 27 23 32 41 25 12 -5 22 -12 22 -17z m2589 -39
c35 -46 69 -123 62 -141 -4 -11 -37 -14 -171 -14 -183 0 -190 2 -160 59 11 23
23 31 43 32 41 1 67 14 67 34 0 13 15 23 53 35 29 10 56 20 59 24 12 11 21 6
47 -29z m-1854 -36 c44 -17 80 -35 80 -40 0 -5 -16 -41 -35 -79 -41 -82 -108
-248 -124 -308 -11 -39 -14 -42 -39 -36 -15 4 -62 24 -104 46 -77 38 -78 39
-78 76 0 45 28 134 40 127 5 -3 11 -19 15 -36 10 -45 29 -45 70 0 21 23 43 41
49 41 7 0 23 -11 36 -25 39 -42 49 -13 14 37 -36 51 -53 56 -93 27 -25 -18
-33 -20 -46 -9 -31 26 -18 65 48 138 34 39 68 71 75 71 7 1 49 -13 92 -30z
m1424 -63 c4 -16 3 -33 -1 -36 -7 -6 -206 -31 -365 -46 -62 -6 -67 -5 -82 18
-39 59 -7 108 35 54 28 -36 88 -50 152 -36 149 32 194 59 117 70 -18 3 -35 11
-38 17 -6 21 27 27 69 13 35 -12 42 -11 57 3 16 16 18 16 34 -5 9 -12 19 -36
22 -52z m-1094 -118 c-10 -52 -4 -66 26 -74 37 -9 90 4 194 49 81 34 108 41
183 45 77 4 87 2 87 -12 0 -20 -176 -107 -305 -150 -124 -42 -246 -69 -258
-57 -15 15 7 123 38 188 32 64 45 68 35 11z m1150 -56 c0 -4 -39 -16 -87 -25
-162 -34 -407 -122 -600 -217 -206 -101 -256 -132 -404 -255 -57 -47 -112 -91
-122 -96 -15 -9 -17 -7 -12 14 4 14 2 28 -5 32 -8 5 -8 11 1 22 10 12 8 18
-14 36 -14 12 -34 41 -43 65 -9 23 -20 42 -25 42 -5 0 -9 4 -9 9 0 5 44 26 98
47 53 21 180 71 282 112 258 103 279 110 404 139 264 60 536 99 536 75z
m-6205 -40 c54 -34 127 -94 121 -99 -6 -6 -125 55 -163 84 -41 31 -52 57 -20
48 12 -4 40 -18 62 -33z m2181 -8 c30 -14 59 -35 66 -47 13 -26 24 -294 14
-361 -6 -39 -11 -46 -30 -46 -34 0 -113 55 -132 92 -20 38 -24 158 -11 301 10
100 10 100 93 61z m254 -25 c41 -17 131 -61 200 -99 69 -37 197 -98 286 -134
351 -142 699 -305 1139 -533 83 -43 260 -129 395 -192 232 -107 383 -182 600
-299 52 -28 169 -81 260 -117 91 -37 318 -143 505 -235 187 -93 401 -194 475
-225 74 -31 223 -99 330 -150 107 -51 233 -106 280 -123 157 -56 225 -91 146
-77 -28 6 -36 3 -54 -20 -24 -30 -47 -126 -38 -160 3 -12 8 -80 11 -151 10
-245 13 -269 43 -297 25 -24 105 -57 137 -57 8 0 67 -27 132 -60 126 -64 149
-70 182 -43 19 17 21 32 27 258 5 202 4 251 -10 308 -9 38 -16 70 -16 71 0 2
50 -7 112 -21 166 -36 430 -78 633 -103 262 -31 241 -25 266 -70 15 -27 33
-43 57 -51 39 -13 168 -8 315 12 80 11 100 11 106 0 16 -25 21 -208 11 -346
-13 -182 -18 -203 -42 -211 -11 -3 -57 -41 -103 -85 -75 -70 -126 -101 -141
-86 -11 11 24 50 99 109 74 58 125 113 115 124 -7 6 -82 -49 -163 -121 -114
-100 -122 -105 -177 -105 -167 0 -500 54 -699 114 -63 18 -162 43 -221 55
-148 29 -283 80 -823 313 -115 50 -262 108 -325 130 -225 78 -538 222 -590
273 -43 41 -114 77 -228 116 -51 17 -212 97 -397 196 -170 92 -452 239 -625
328 -173 89 -389 201 -480 248 -91 48 -258 129 -370 180 -113 52 -344 170
-515 262 -170 92 -461 246 -645 343 -184 96 -346 182 -359 190 l-24 15 21 16
c31 23 42 71 42 181 0 113 -16 329 -26 355 -7 16 -3 17 32 11 21 -4 73 -21
114 -37z m4519 -10 c58 -23 142 -57 186 -75 120 -50 303 -119 365 -138 80 -25
110 -38 110 -45 0 -4 -46 -12 -102 -19 -165 -20 -274 -46 -413 -100 -71 -28
-157 -55 -190 -62 -70 -13 -78 -11 -374 117 -97 42 -213 88 -259 104 -45 15
-152 56 -238 90 -181 72 -182 73 -29 115 178 48 222 52 539 53 l298 1 107 -41z
m-6621 -31 c4 -45 -7 -49 -31 -9 -23 39 -21 53 6 49 18 -2 23 -10 25 -40z m71
-31 c16 -20 42 -87 34 -87 -7 0 -63 85 -63 95 0 10 18 4 29 -8z m5581 -97
c344 -122 735 -287 754 -319 8 -13 -32 -31 -70 -31 -34 0 -154 43 -344 122
-91 39 -219 92 -285 119 -248 103 -315 132 -315 141 0 11 61 39 75 34 6 -2 89
-31 185 -66z m-4475 -30 c132 -65 488 -262 510 -282 19 -19 -630 311 -665 337
-30 23 -31 26 -10 20 14 -4 88 -38 165 -75z m-749 -152 c9 -27 14 -51 12 -53
-5 -6 -64 96 -73 127 l-7 23 25 -24 c15 -13 34 -46 43 -73z m-308 69 c16 -19
26 -67 13 -67 -11 0 -41 51 -41 70 0 14 15 13 28 -3z m7380 -63 l37 -16 -110
-25 c-130 -28 -217 -28 -257 2 -56 41 -21 52 165 54 98 1 136 -3 165 -15z
m-283 -120 c131 -78 239 -148 459 -296 6 -4 8 -10 4 -13 -3 -3 -41 18 -84 47
-88 60 -214 136 -319 193 -145 78 -265 149 -265 157 0 24 63 -2 205 -88z
m-6637 59 c31 -80 24 -102 -8 -27 -23 52 -23 54 -11 54 5 0 13 -12 19 -27z
m-163 -72 c5 -16 4 -21 -4 -17 -12 8 -41 71 -41 90 0 15 36 -43 45 -73z m7287
55 c69 -13 161 -46 273 -97 l50 -23 -46 -7 c-26 -4 -141 -12 -257 -18 l-210
-12 -96 53 c-52 29 -94 57 -92 63 3 12 46 23 155 40 114 17 136 18 223 1z
m-7012 -61 c0 -13 16 -57 36 -100 36 -75 59 -155 44 -155 -10 0 -33 51 -60
135 -13 39 -31 87 -42 108 -10 21 -16 42 -12 48 9 16 34 -10 34 -36z m6236 26
c-3 -5 -18 -12 -33 -16 -16 -3 -93 -31 -173 -62 -101 -39 -157 -66 -183 -90
-21 -19 -80 -54 -131 -78 -100 -46 -121 -63 -88 -72 11 -3 23 -11 26 -19 8
-21 22 -18 131 29 133 58 185 85 185 97 0 15 -15 12 -83 -16 -94 -40 -139 -55
-131 -43 3 5 30 21 60 34 29 13 66 36 81 51 15 15 54 39 87 54 82 37 341 120
375 120 34 0 75 -40 51 -48 -8 -3 -100 -48 -205 -100 -104 -52 -255 -123 -334
-159 -185 -83 -256 -129 -336 -216 -102 -112 -162 -257 -182 -442 -8 -67 -9
-70 -33 -67 -49 7 -199 76 -204 94 -2 10 2 49 10 86 8 37 14 71 14 76 0 5 3 6
8 2 4 -5 7 -29 7 -54 0 -35 4 -47 15 -47 10 0 17 21 25 75 9 66 30 128 40 118
1 -1 -5 -34 -15 -73 -24 -89 -26 -165 -5 -165 16 0 22 19 28 100 3 36 19 86
45 143 l41 87 -31 16 c-18 9 -47 14 -69 12 -22 -2 -39 -2 -39 -1 0 1 7 22 17
45 24 63 94 167 146 217 49 47 53 48 138 15 l45 -17 129 69 c71 38 130 75 133
82 8 24 -38 11 -143 -43 -59 -31 -110 -54 -112 -52 -6 6 169 115 228 141 30
14 106 36 169 50 63 15 153 37 200 50 102 28 103 28 96 17z m-4936 -164 c52
-24 156 -77 230 -117 74 -40 218 -116 320 -169 102 -54 266 -144 365 -201 210
-121 374 -204 500 -255 50 -20 130 -58 178 -86 48 -27 122 -63 165 -80 42 -17
127 -59 187 -94 61 -34 241 -130 400 -213 298 -154 420 -221 412 -228 -17 -17
-1594 773 -2202 1103 -261 142 -755 423 -755 429 0 4 53 -19 200 -89z m5260
52 c32 -17 68 -41 80 -54 l23 -24 -44 -18 c-24 -9 -84 -39 -134 -66 -49 -26
-137 -71 -195 -98 -187 -90 -378 -246 -476 -389 -34 -51 -50 -66 -64 -63 -21
6 -57 -57 -96 -167 l-23 -65 0 50 c-1 54 30 140 69 194 25 37 21 45 -33 59
-33 9 -40 8 -57 -10 -27 -30 -54 -92 -75 -176 -22 -84 -43 -84 -26 -1 10 49
45 129 81 186 8 12 11 26 7 30 -39 39 -152 -224 -131 -304 4 -14 14 -23 25
-23 11 0 22 -7 25 -15 14 -35 31 -12 44 58 7 39 21 95 32 124 18 49 56 108 64
100 2 -2 -12 -43 -32 -92 -53 -128 -59 -215 -15 -215 22 0 76 -74 66 -90 -12
-19 -62 -4 -163 47 -103 53 -116 72 -88 126 9 18 25 69 35 114 18 75 41 130
73 175 17 24 3 34 -28 20 l-25 -12 26 48 c14 26 43 68 65 93 41 48 157 132
199 144 21 6 23 5 18 -14 -8 -33 11 -35 49 -6 39 30 52 28 33 -4 -24 -37 -2
-33 71 14 39 26 119 70 177 97 91 44 125 69 112 83 -2 2 -30 -8 -63 -21 -32
-14 -59 -24 -61 -22 -2 2 9 17 23 34 19 23 72 52 182 102 140 63 178 79 189
81 2 1 29 -13 61 -30z m-6555 -104 c8 -25 10 -45 6 -45 -12 0 -47 77 -55 120
l-7 35 21 -32 c12 -18 28 -53 35 -78z m7395 50 c153 -32 300 -95 375 -160 l30
-26 -30 6 c-57 11 -300 26 -492 30 l-192 4 -73 49 c-40 27 -81 59 -91 70 -18
20 -18 20 35 26 172 19 350 19 438 1z m-7126 -17 c9 -12 23 -45 32 -73 10 -27
26 -62 37 -77 13 -18 18 -34 13 -52 -10 -39 -22 -31 -41 26 -9 29 -30 78 -46
110 -30 59 -36 88 -20 88 6 0 17 -10 25 -22z m6541 -83 c22 -13 53 -37 69 -54
29 -30 29 -31 10 -45 -10 -8 -91 -52 -179 -98 -330 -171 -441 -272 -520 -470
-26 -65 -38 -84 -56 -88 -13 -3 -31 -20 -41 -37 -17 -29 -48 -160 -48 -204 0
-43 20 -13 49 74 40 119 53 139 46 70 -23 -237 -19 -223 -66 -223 -22 0 -72
14 -113 32 l-74 31 5 36 c11 90 35 180 58 220 34 59 33 74 -5 66 -19 -4 -30
-3 -30 4 0 6 -8 11 -19 11 -21 0 -41 -42 -86 -178 -21 -64 -24 -86 -15 -95 9
-9 15 -7 26 7 8 11 14 27 14 36 0 9 6 25 14 36 13 17 14 11 11 -56 -5 -84 -3
-83 -82 -54 -41 15 -58 34 -29 34 9 0 16 18 20 53 4 28 26 98 48 155 23 56 38
105 35 109 -4 3 -18 1 -32 -5 -14 -6 -25 -9 -25 -6 0 19 66 140 99 182 67 84
125 125 181 129 27 1 52 -2 55 -7 10 -17 22 -12 69 29 25 21 51 42 58 45 9 4
9 8 2 11 -6 3 -20 12 -30 20 -19 13 -19 14 0 28 39 29 324 169 411 202 96 36
107 36 170 0z m810 -111 c108 -6 131 -12 259 -75 55 -27 108 -49 118 -49 30 0
75 -27 98 -60 30 -42 12 -40 -108 13 l-97 42 -265 1 c-235 1 -269 3 -300 19
-55 28 -150 107 -143 118 6 9 161 6 438 -9z m-570 -43 c100 -58 102 -51 -38
-192 -124 -125 -319 -364 -355 -436 -11 -21 -29 -69 -42 -108 -12 -38 -33 -81
-45 -95 -35 -38 -45 -65 -45 -113 0 -36 6 -51 30 -77 42 -45 56 -35 65 47 10
96 49 242 82 311 34 71 262 361 359 458 39 39 85 76 103 82 29 10 36 7 108
-45 68 -48 147 -108 177 -134 5 -5 -6 -27 -26 -51 -56 -69 -141 -204 -202
-323 -32 -60 -72 -131 -91 -158 -52 -73 -77 -149 -83 -254 l-5 -93 -36 0 c-39
0 -234 45 -341 78 -36 11 -130 37 -210 58 -168 42 -280 81 -287 100 -5 14 47
134 59 134 4 0 5 -20 1 -45 -8 -65 10 -57 46 20 38 79 39 115 6 152 l-25 28
-30 -35 c-26 -30 -29 -32 -30 -14 0 42 40 177 70 232 39 72 55 90 108 125 23
15 76 59 117 98 64 61 101 85 272 173 109 57 207 104 218 105 11 0 43 -12 70
-28z m-6562 -27 c104 -53 206 -112 432 -253 110 -68 260 -155 333 -194 142
-74 148 -80 153 -158 4 -43 3 -44 -27 -47 -22 -2 -42 6 -74 31 -47 35 -525
347 -680 443 -50 30 -110 62 -134 70 -24 8 -53 25 -65 38 -34 36 -47 106 -20
106 5 0 42 -16 82 -36z m7442 -124 c90 -29 190 -77 284 -140 57 -37 86 -65
118 -112 42 -63 79 -138 67 -138 -3 0 -38 20 -78 44 -168 105 -364 174 -627
221 -115 20 -132 26 -197 68 -40 26 -72 51 -72 57 0 20 105 29 310 25 97 -2
140 -7 195 -25z m-344 -171 c30 -20 72 -44 93 -53 32 -13 36 -18 26 -31 -10
-12 5 -33 99 -131 61 -63 147 -159 191 -212 44 -53 104 -125 134 -160 79 -93
134 -202 116 -231 -5 -8 -18 6 -37 41 -17 29 -70 101 -119 159 -193 229 -383
446 -427 486 -26 24 -54 58 -63 75 -9 18 -35 50 -58 72 -46 43 -37 40 45 -15z
m-116 -225 c-31 -97 -77 -224 -101 -281 -47 -111 -51 -123 -31 -123 13 0 19
12 105 225 56 137 57 139 60 96 2 -28 -9 -83 -32 -160 -20 -65 -36 -130 -36
-145 0 -36 22 -29 32 10 39 153 83 304 89 304 19 0 21 -116 3 -221 -10 -60
-15 -111 -12 -115 14 -13 28 9 34 57 9 65 20 70 28 12 15 -110 -1 -300 -27
-322 -8 -6 -40 -6 -87 -1 -41 5 -143 9 -227 10 l-152 0 -11 57 c-22 103 4 209
71 294 17 21 66 107 110 190 82 158 151 257 157 227 4 -19 -58 -183 -89 -236
-20 -35 -25 -62 -11 -62 26 0 132 246 132 305 0 46 24 85 42 67 6 -6 -11 -75
-47 -188z m562 131 c28 -8 56 -22 63 -30 10 -12 1 -11 -44 5 -101 34 -116 54
-19 25z m-2331 -175 c-19 -59 -24 -68 -25 -43 -1 34 42 158 46 133 2 -8 -8
-49 -21 -90z m2548 15 c55 -39 83 -44 88 -17 3 13 15 6 56 -35 62 -62 143
-216 124 -235 -8 -8 -13 -7 -18 5 -3 9 -42 46 -85 82 -44 36 -90 83 -103 103
-13 21 -42 51 -65 67 -40 27 -71 65 -54 65 5 0 30 -16 57 -35z m-6721 -60 c47
-32 47 -52 2 -61 -50 -9 -65 0 -65 39 0 55 9 58 63 22z m6499 -43 c27 -25 63
-67 80 -94 35 -54 48 -60 48 -22 0 21 4 25 20 21 12 -3 23 1 29 10 7 14 17 11
69 -21 33 -20 86 -64 118 -99 112 -120 112 -151 -3 -203 -41 -19 -77 -33 -78
-32 -1 2 -13 23 -25 48 -34 68 -76 125 -175 240 -97 113 -157 187 -170 208
-13 25 34 -7 87 -56z m-310 -14 c16 -54 22 -99 22 -171 1 -81 3 -97 16 -95 12
3 16 24 20 98 5 93 5 94 22 70 9 -14 22 -52 28 -85 11 -54 13 -57 26 -40 18
24 18 25 -6 92 -11 31 -18 58 -16 60 7 7 55 -62 76 -110 28 -62 45 -62 37 1
l-6 47 27 -31 c15 -17 59 -67 99 -112 78 -88 116 -151 111 -185 -2 -18 -14
-24 -63 -34 -79 -16 -260 -33 -359 -33 l-79 0 8 73 c4 39 7 174 6 300 0 125 1
227 4 227 2 0 14 -33 27 -72z m-3417 -614 c55 -30 147 -77 205 -105 58 -28
222 -109 365 -180 279 -138 501 -235 960 -416 160 -62 315 -127 345 -142 30
-16 96 -43 145 -61 100 -37 114 -45 99 -60 -23 -23 -229 42 -494 158 -107 46
-231 97 -275 112 -44 16 -104 38 -132 49 -29 11 -99 32 -155 46 -220 56 -207
49 -238 119 -33 71 -40 79 -95 96 -22 7 -61 25 -87 41 -25 15 -93 46 -150 68
-56 23 -143 63 -193 90 -49 28 -160 86 -245 131 -85 44 -166 90 -180 101 l-25
20 25 -6 c14 -4 70 -31 125 -61z m1815 -100 c19 -12 85 -39 146 -59 78 -25
119 -44 138 -64 l27 -28 -5 -231 c-3 -128 -7 -236 -11 -242 -12 -19 -42 -10
-160 46 -65 31 -141 64 -169 74 -45 15 -51 21 -53 46 -2 16 -10 102 -19 190
-14 135 -15 172 -5 225 7 35 18 67 24 71 15 10 43 1 87 -28z m2475 26 c20 -32
-74 -93 -223 -145 -138 -48 -532 -119 -726 -131 -100 -6 -114 -5 -130 12 -18
17 -18 18 0 24 11 4 91 15 179 24 236 25 396 53 478 82 39 14 137 48 216 75
80 28 152 54 160 59 21 12 38 12 46 0z m-216 -343 c3 -128 -12 -395 -28 -499
-10 -62 -31 -82 -103 -97 -29 -7 -84 -19 -123 -27 -38 -9 -89 -27 -112 -40
-23 -13 -54 -24 -68 -24 l-27 0 32 30 c27 26 31 34 24 58 -10 36 -11 236 0
287 7 34 9 37 18 21 6 -11 8 -48 4 -96 -9 -94 5 -153 39 -176 21 -14 26 -14
54 0 18 10 55 16 93 16 72 0 124 25 132 62 3 13 7 77 9 143 3 66 11 186 18
267 12 138 12 148 -5 167 -10 11 -30 21 -45 23 -23 3 -21 5 19 19 28 10 49 13
55 7 6 -5 12 -68 14 -141z m-3601 104 c75 -30 157 -75 167 -91 10 -16 -195 75
-245 109 -28 19 7 11 78 -18z m3358 -26 c-11 -8 -36 -17 -55 -21 -57 -9 -61
-12 -79 -51 l-17 -38 -3 44 c-2 23 -1 45 2 48 7 7 115 30 146 31 24 1 24 1 6
-13z m-3796 -170 c0 -12 -105 39 -115 56 -4 5 20 -4 54 -21 34 -16 61 -32 61
-35z m4143 -111 c-5 -75 -4 -83 15 -93 18 -9 20 -19 17 -83 -1 -40 -6 -81 -9
-90 -7 -16 -63 -48 -85 -48 -16 0 -13 17 4 24 11 4 15 23 15 78 0 95 32 336
41 312 4 -11 4 -56 2 -100z m-4284 41 c30 -14 80 -41 110 -59 31 -19 196 -100
366 -180 171 -81 326 -154 345 -164 29 -14 36 -23 38 -52 4 -41 19 -61 28 -37
8 23 24 21 24 -2 0 -57 159 -143 665 -361 143 -62 280 -123 305 -135 25 -13
73 -31 105 -41 86 -24 211 -79 278 -120 45 -28 106 -48 285 -96 434 -114 619
-154 836 -178 48 -5 95 -15 103 -22 13 -10 15 -32 11 -121 -6 -152 3 -146
-201 -123 -182 20 -336 47 -446 79 -73 21 -74 21 -88 1 -8 -10 -17 -31 -20
-46 -5 -25 -10 -28 -44 -28 -46 0 -71 28 -62 70 8 40 -12 68 -58 82 l-41 12 6
45 c21 144 21 140 -10 151 -27 11 -146 37 -209 47 -43 7 -64 -21 -75 -97 -5
-34 -11 -65 -14 -68 -10 -9 -90 19 -122 43 -21 16 -38 44 -54 87 -54 151 -103
211 -198 247 -31 12 -134 65 -228 117 -95 52 -217 114 -272 138 -95 41 -265
130 -737 388 -115 63 -248 136 -295 161 -103 56 -402 257 -408 275 -6 18 17
15 77 -13z m-94 -128 c14 -38 24 -71 22 -73 -5 -5 -107 190 -107 202 2 25 62
-68 85 -129z m1136 90 c30 -13 113 -41 185 -62 200 -58 414 -135 772 -277 192
-76 229 -98 174 -106 -26 -4 -296 86 -797 266 -214 77 -397 143 -406 147 -19
7 -42 52 -34 65 6 10 19 6 106 -33z m-1171 -162 c50 -99 66 -151 34 -110 -14
18 -125 236 -132 260 -2 5 9 -3 23 -20 14 -16 48 -75 75 -130z m77 123 c14
-18 33 -99 22 -92 -11 7 -49 79 -49 94 0 14 15 13 27 -2z m3913 -38 c0 -14 -3
-36 -7 -50 l-7 -25 -6 24 c-8 35 0 107 11 90 5 -8 9 -25 9 -39z m-2785 -43
c44 -19 143 -53 220 -76 77 -23 253 -84 390 -136 280 -105 464 -163 527 -167
37 -3 42 0 48 22 8 34 44 37 145 11 44 -11 100 -24 124 -28 50 -9 69 -33 26
-33 -15 0 -65 9 -111 20 -102 25 -155 29 -161 13 -12 -33 513 -157 882 -208
66 -9 134 -23 152 -32 17 -8 42 -13 55 -10 41 11 51 -6 21 -35 l-28 -26 -97
14 c-53 8 -190 33 -305 55 -114 22 -307 56 -428 75 -189 31 -247 45 -413 100
-222 74 -527 186 -822 302 -113 45 -223 84 -245 88 -75 13 -105 37 -105 85 0
21 -5 22 125 -34z m-1030 17 c13 -14 34 -56 46 -92 25 -78 53 -131 79 -149 10
-7 24 -29 30 -49 24 -71 -43 -174 -112 -174 -24 0 -42 11 -74 45 -49 51 -69
108 -59 169 3 23 7 58 8 79 1 20 4 37 7 37 10 0 34 -45 66 -125 35 -86 54
-106 54 -55 0 28 2 31 15 20 11 -9 19 -10 26 -3 15 15 -23 120 -83 231 -49 91
-50 117 -3 66z m4325 -57 c0 -59 -14 -94 -26 -64 -9 24 5 129 17 122 5 -4 9
-30 9 -58z m-4176 -71 c21 -48 19 -60 -7 -50 -17 6 -41 51 -53 99 -7 29 -7 30
17 14 13 -9 33 -37 43 -63z m3845 31 c-2 -63 -12 -79 -67 -103 -46 -20 -53
-21 -67 -8 -19 19 -19 44 -1 69 13 18 14 18 20 -2 7 -20 58 -39 77 -27 5 3 9
27 9 53 0 26 3 51 6 54 13 13 24 -5 23 -36z m-2978 -6 c46 -16 118 -45 159
-64 76 -35 194 -78 584 -212 365 -126 406 -144 406 -172 0 -41 -38 -49 -96
-20 -56 28 -339 141 -494 197 -58 21 -179 70 -270 110 -91 40 -212 90 -270
112 -105 40 -130 53 -130 69 0 15 22 11 111 -20z m-791 -36 c7 -8 9 -23 5 -32
-6 -17 -7 -17 -21 1 -26 36 -12 64 16 31z m765 -35 c42 -17 208 -86 369 -155
161 -69 360 -149 442 -179 199 -72 310 -121 346 -151 16 -14 55 -32 86 -40 31
-8 89 -24 127 -34 96 -27 461 -107 567 -125 118 -21 331 -37 379 -30 34 6 40
4 50 -20 15 -32 21 -32 59 -4 22 16 33 19 41 11 15 -15 5 -28 -43 -64 -34 -24
-51 -29 -97 -29 -80 0 -248 26 -317 48 -33 11 -102 27 -154 37 -52 10 -174 42
-270 72 -96 29 -231 69 -300 89 -128 36 -192 59 -315 112 -38 17 -101 40 -139
52 -38 11 -168 67 -290 124 -121 57 -304 138 -405 181 -224 93 -221 91 -221
115 0 11 2 20 5 20 2 0 38 -14 80 -30z m-555 -120 c10 -30 26 -75 37 -100 11
-25 26 -70 32 -99 22 -103 82 -146 143 -101 16 12 35 19 43 16 27 -10 34 -241
7 -268 -8 -8 -32 4 -94 49 -46 33 -105 74 -131 92 l-48 32 2 177 c2 146 -1
184 -14 216 -20 46 -20 49 -6 44 6 -2 19 -28 29 -58z m3240 27 c0 -37 -40 -82
-98 -112 -62 -31 -53 -7 34 89 27 29 52 54 57 55 4 1 7 -14 7 -32z m-2516 -77
c71 -28 240 -99 375 -157 576 -246 628 -266 986 -363 472 -128 673 -171 879
-186 71 -6 85 -10 89 -25 5 -20 57 -28 57 -9 0 26 41 50 85 50 43 0 45 -1 39
-24 -9 -39 11 -38 32 2 19 36 22 37 77 38 37 1 62 7 70 16 9 11 31 14 100 10
l89 -4 -29 -30 c-41 -44 -89 -65 -189 -83 -49 -10 -101 -23 -116 -31 -15 -8
-39 -14 -53 -14 -24 0 -26 3 -20 30 7 32 -5 40 -25 16 -19 -23 -96 -49 -125
-42 -24 6 -36 36 -15 36 6 0 10 4 10 9 0 4 -23 2 -52 -5 -76 -20 -158 -17
-322 11 -80 14 -159 25 -176 25 -17 0 -111 23 -208 50 -394 113 -725 233 -985
360 -206 99 -638 301 -739 345 -65 28 -88 42 -88 56 0 21 3 20 254 -81z m1216
61 c52 -16 114 -35 138 -41 76 -20 44 -27 -60 -13 -152 19 -232 49 -208 78 6
8 17 12 23 10 7 -2 55 -17 107 -34z m-2033 -141 c44 -103 53 -193 18 -198 -21
-3 -165 83 -165 99 0 15 61 94 73 94 6 0 20 -24 32 -54 21 -57 45 -78 45 -41
0 12 -13 52 -29 88 -16 37 -33 81 -36 97 -13 55 22 7 62 -85z m271 77 c15 -18
28 -122 14 -113 -11 6 -42 90 -42 113 0 17 14 17 28 0z m3482 4 c0 -13 -21
-18 -105 -31 -98 -14 -122 -13 -107 3 24 24 212 49 212 28z m-3047 -55 c73
-29 211 -90 307 -134 96 -44 216 -97 265 -117 50 -20 154 -70 232 -110 224
-116 377 -172 848 -309 172 -50 210 -57 393 -76 187 -19 355 -44 375 -57 4 -2
3 -11 -4 -19 -16 -20 -95 -18 -242 6 -399 64 -799 172 -1077 290 -80 34 -224
93 -320 130 -96 37 -236 97 -311 133 -75 36 -188 88 -251 116 -63 28 -153 70
-199 95 -46 24 -103 49 -126 56 -24 6 -43 12 -43 15 0 8 13 35 17 35 2 0 64
-24 136 -54z m3247 45 c0 -15 -51 -51 -71 -51 -26 0 -24 15 7 39 27 22 64 28
64 12z m-1466 -30 c100 -16 256 -40 349 -52 92 -13 167 -27 167 -32 0 -17
-218 0 -345 26 -66 14 -168 33 -227 41 -116 18 -138 23 -138 37 0 12 -11 13
194 -20z m-2129 -15 c10 -15 15 -40 13 -68 l-3 -43 -22 47 c-33 72 -37 88 -19
88 9 0 23 -11 31 -24z m3437 -96 c-3 -109 -24 -268 -42 -314 -19 -51 -169 -99
-198 -63 -12 16 -26 300 -17 372 5 40 13 58 27 66 23 12 195 48 218 45 12 -1
15 -19 12 -106z m198 75 c0 -18 -77 -71 -88 -61 -8 8 62 76 78 76 5 0 10 -7
10 -15z m-1510 -35 c249 -49 322 -61 424 -70 109 -9 130 -19 95 -44 -30 -21
-49 -20 -178 3 -58 11 -185 32 -281 46 -269 41 -292 48 -276 90 6 16 -3 18
216 -25z m925 20 c34 -13 31 -51 -5 -61 -36 -10 -108 -10 -114 0 -6 9 26 41
59 59 25 14 28 14 60 2z m94 -21 c8 -23 8 -50 -1 -101 -10 -61 -13 -67 -26
-54 -12 11 -13 31 -7 100 4 47 10 86 15 86 4 0 13 -14 19 -31z m-3045 5 c9 -8
16 -31 16 -50 0 -19 16 -79 36 -132 19 -53 37 -103 40 -111 7 -22 -48 -201
-62 -201 -7 0 -27 12 -44 27 l-32 26 4 103 c4 137 24 153 48 40 11 -52 27 -79
40 -71 12 7 -14 127 -54 251 -20 61 -36 116 -36 122 0 17 26 15 44 -4z m2793
-29 c-28 -25 -71 -33 -82 -16 -9 16 37 41 75 41 l35 -1 -28 -24z m-2989 -27
c18 -18 14 -38 -7 -38 -22 0 -45 25 -36 40 8 13 28 13 43 -2z m272 -14 c0 -8
11 -42 26 -75 14 -34 24 -68 22 -77 -2 -10 -18 20 -36 65 -33 84 -40 119 -22
108 6 -3 10 -13 10 -21z m123 -89 c18 -48 16 -82 -3 -70 -16 10 -60 102 -60
126 0 20 2 20 23 7 12 -9 30 -37 40 -63z m2482 55 c8 -13 -31 -50 -54 -50 -10
0 -24 6 -30 14 -10 11 -7 17 11 30 25 18 64 21 73 6z m815 1 c0 -16 -63 -71
-82 -71 -21 0 -22 9 -5 30 28 36 87 64 87 41z m-690 -10 c0 -15 -51 -51 -71
-51 -29 0 -34 22 -9 42 23 19 80 25 80 9z m158 -19 c4 -25 -2 -28 -80 -36 -45
-5 -58 -3 -58 7 0 21 31 45 65 50 53 8 70 3 73 -21z m-2581 -62 c116 -50 277
-134 320 -168 16 -13 24 -34 31 -87 6 -38 14 -79 18 -89 5 -13 4 -17 -4 -12
-6 4 -21 38 -32 75 -22 75 -45 106 -56 76 -4 -9 0 -41 10 -69 9 -29 16 -64 16
-77 -1 -24 -1 -24 -25 5 -13 16 -40 69 -60 116 -19 48 -42 95 -49 106 -14 18
-15 18 -21 1 -5 -11 7 -55 29 -112 20 -52 36 -99 36 -105 0 -17 -20 -11 -26 8
-16 51 -97 240 -110 257 -14 19 -16 19 -25 3 -14 -24 -23 -23 -39 6 -17 33
-41 41 -57 20 -11 -14 -17 -15 -38 -6 -25 12 -65 66 -65 90 0 20 25 14 147
-38z m1239 -1 c127 -36 125 -35 117 -54 -8 -22 -43 -19 -167 14 -61 16 -123
32 -138 35 -16 4 -28 13 -28 21 0 25 96 18 216 -16z m1858 -39 c-60 -52 -82
-63 -65 -31 17 30 80 81 102 81 15 0 6 -12 -37 -50z m-1509 14 c66 -14 185
-36 265 -48 109 -18 138 -25 118 -31 -17 -4 -66 1 -130 15 -97 20 -398 41
-398 27 0 -3 7 -13 16 -21 11 -12 35 -16 88 -16 40 0 138 -11 217 -25 79 -14
180 -25 224 -25 91 0 150 -13 163 -37 7 -12 13 -13 30 -4 25 14 62 14 62 1 0
-27 -42 -29 -232 -15 -201 16 -335 36 -397 60 -20 8 -63 19 -96 26 -66 12 -95
25 -95 40 0 17 29 79 37 79 4 0 62 -12 128 -26z m705 16 c13 -9 11 -14 -13
-35 -43 -39 -109 -28 -76 12 24 28 65 39 89 23z m369 -127 c1 -73 -4 -84 -27
-61 -16 16 -16 143 0 171 12 22 12 21 19 -8 4 -16 7 -63 8 -102z m-239 108 c0
-30 -72 -63 -92 -43 -19 19 19 52 59 52 18 0 33 -4 33 -9z m158 -8 c2 -7 -4
-16 -13 -19 -21 -8 -68 13 -60 27 9 14 67 7 73 -8z m-2734 -62 c3 -5 -10 -23
-30 -41 -28 -24 -39 -29 -45 -19 -9 16 5 44 29 58 21 13 39 14 46 2z m3334
-38 c-3 -19 -55 -49 -65 -39 -9 9 38 56 54 56 8 0 13 -8 11 -17z m-88 -1 c0
-19 -76 -69 -87 -58 -9 8 54 66 71 66 9 0 16 -4 16 -8z m-3115 -47 l43 -24 7
-75 c6 -70 5 -79 -21 -127 -58 -106 -100 -113 -245 -38 -54 28 -99 55 -99 60
0 11 6 11 54 -2 48 -13 62 -2 57 46 -1 19 5 60 14 90 12 43 23 60 48 75 43 27
92 25 142 -5z m2592 10 c3 -11 -115 -40 -124 -31 -12 12 21 35 55 39 51 5 65
4 69 -8z m-197 -9 c0 -20 -26 -38 -50 -34 -28 4 -28 20 1 35 32 17 49 16 49
-1z m824 -41 c15 -40 -44 -105 -95 -105 -41 0 -37 21 14 75 45 46 71 56 81 30z
m-2774 -5 c9 -6 14 -21 12 -39 -2 -18 10 -57 32 -102 36 -75 45 -114 25 -107
-14 5 -97 186 -106 229 -6 31 8 38 37 19z m2201 -18 l31 -28 -32 -27 c-27 -23
-41 -27 -97 -27 l-65 0 14 23 c17 24 94 87 109 87 5 0 23 -13 40 -28z m-2063
-38 c48 -20 94 -40 102 -44 16 -7 28 -100 13 -100 -4 0 -18 18 -31 40 -12 22
-27 40 -33 40 -15 0 -7 -55 16 -105 14 -33 14 -37 2 -26 -9 7 -28 44 -43 82
-28 72 -38 82 -49 49 -9 -29 -19 -25 -49 18 -23 34 -35 82 -20 82 3 0 44 -16
92 -36z m1892 17 c0 -5 -16 -23 -35 -39 -37 -33 -100 -51 -117 -34 -14 14 10
48 47 67 33 16 105 20 105 6z m600 5 c0 -2 -20 -28 -45 -57 -52 -61 -91 -89
-123 -89 l-23 0 22 31 c41 58 169 145 169 115z m-3509 -102 c34 -17 54 -43 43
-54 -5 -5 -62 -21 -127 -36 l-118 -26 -45 23 c-25 13 -52 32 -61 41 -19 21
-28 17 127 51 116 25 134 25 181 1z m3656 -41 c5 -51 -14 -92 -35 -79 -15 9
-16 101 -1 128 16 29 31 9 36 -49z m-551 -167 c-81 -117 -289 -358 -297 -345
-13 21 3 43 161 228 156 182 221 238 136 117z m454 33 c0 -12 -16 -39 -35 -60
-19 -21 -48 -66 -66 -100 -17 -34 -53 -91 -81 -127 -37 -48 -46 -68 -38 -76 9
-8 23 1 54 37 23 26 46 47 50 47 12 0 -3 -52 -21 -72 -15 -17 -111 -58 -135
-58 -21 0 1 38 125 223 70 104 127 192 127 198 0 5 5 9 10 9 6 0 10 -10 10
-21z m-1890 -17 c72 -16 75 -18 78 -48 2 -19 -4 -39 -15 -53 l-19 -23 -69 21
c-108 33 -129 54 -109 105 8 20 36 19 134 -2z m1240 -11 c0 -14 -38 -24 -66
-17 -14 4 -22 11 -19 16 8 13 85 13 85 1z m-1612 -73 c20 -20 13 -69 -18 -138
-27 -61 -52 -91 -64 -79 -15 15 43 229 63 229 4 0 12 -5 19 -12z m1672 6 c0
-16 -159 -188 -167 -180 -3 2 23 45 56 95 50 74 66 91 86 91 14 0 25 -3 25 -6z
m-1300 -129 c36 -9 80 -20 98 -26 l33 -11 -2 -74 -2 -74 -29 0 c-26 0 -168 53
-194 72 -16 12 -25 75 -14 104 11 28 23 29 110 9z"/>
<path d="M5492 9441 c-8 -5 -12 -22 -10 -42 2 -26 8 -34 23 -34 22 0 37 41 23
68 -10 19 -17 21 -36 8z"/>
<path d="M5307 9424 c-12 -12 -8 -49 7 -69 12 -17 16 -17 30 -5 24 19 17 74
-9 78 -12 2 -24 0 -28 -4z"/>
<path d="M5022 9413 c-21 -8 -34 -51 -22 -74 16 -29 58 -25 71 8 20 53 -4 85
-49 66z"/>
<path d="M5138 9394 c-13 -28 -5 -49 25 -68 20 -13 57 18 57 49 0 49 -62 63
-82 19z"/>
<path d="M4749 9384 c-19 -23 8 -68 44 -72 24 -3 27 0 27 27 0 20 -8 35 -22
45 -28 20 -32 20 -49 0z"/>
<path d="M4882 9388 c-17 -17 -15 -42 6 -61 26 -23 41 -21 48 7 11 46 -25 83
-54 54z"/>
<path d="M4527 9383 c-14 -13 -6 -60 12 -77 32 -29 58 -6 51 44 -3 28 -46 50
-63 33z"/>
<path d="M4259 9359 c-18 -34 4 -71 38 -67 34 4 41 29 19 63 -20 31 -42 32
-57 4z"/>
<path d="M4389 9364 c-11 -13 -11 -20 2 -42 32 -57 102 -28 79 32 -7 20 -17
26 -39 26 -15 0 -35 -7 -42 -16z"/>
<path d="M4644 9365 c-4 -8 -3 -26 0 -40 8 -30 42 -34 51 -5 13 40 -37 84 -51
45z"/>
<path d="M4107 9363 c-13 -12 -7 -60 8 -73 8 -7 25 -10 40 -6 46 12 29 86 -20
86 -12 0 -25 -3 -28 -7z"/>
<path d="M3735 9307 c-23 -43 -17 -72 15 -72 33 0 57 47 41 81 -15 33 -35 30
-56 -9z"/>
<path d="M3592 9308 c-16 -16 -15 -60 1 -82 8 -11 23 -17 38 -14 20 2 25 9 27
41 5 57 -33 88 -66 55z"/>
<path d="M3475 9300 c-4 -6 -11 -24 -15 -41 -8 -26 -5 -35 17 -57 25 -25 26
-25 40 -6 8 11 13 37 11 64 -2 37 -7 46 -25 48 -11 2 -24 -2 -28 -8z"/>
<path d="M3303 9279 c-32 -12 -31 -68 1 -105 l23 -28 27 27 c52 52 15 131 -51
106z"/>
<path d="M3178 9253 c-37 -43 -28 -83 18 -83 31 0 48 38 34 75 -11 29 -31 32
-52 8z"/>
<path d="M3045 9224 c-18 -19 -12 -49 15 -78 16 -16 22 -17 34 -6 19 15 21 71
4 88 -16 16 -34 15 -53 -4z"/>
<path d="M2921 9211 c-6 -11 -11 -35 -11 -55 0 -37 22 -53 59 -41 27 8 32 29
17 72 -15 44 -48 56 -65 24z"/>
<path d="M2832 9188 c-17 -17 -15 -63 3 -78 21 -17 43 -6 51 26 11 45 -25 81
-54 52z"/>
<path d="M2681 9166 c-17 -20 -10 -66 11 -80 26 -16 60 19 56 58 -2 25 -8 32
-29 34 -14 2 -31 -4 -38 -12z"/>
<path d="M2366 9118 c-20 -28 -20 -48 0 -97 16 -42 38 -58 51 -38 11 17 12
119 1 140 -12 23 -34 21 -52 -5z"/>
<path d="M2179 9071 c-16 -16 -29 -38 -29 -49 0 -30 38 -72 65 -72 51 0 87 97
49 134 -23 24 -52 19 -85 -13z"/>
<path d="M2050 9048 c-12 -20 -20 -50 -20 -78 0 -90 33 -93 68 -7 21 49 22 59
10 83 -19 40 -35 40 -58 2z"/>
<path d="M1909 9011 c-21 -17 -22 -22 -13 -67 7 -39 13 -50 30 -52 47 -7 84
87 48 122 -20 21 -37 20 -65 -3z"/>
<path d="M1720 8970 c-15 -15 -20 -33 -20 -74 0 -30 -3 -62 -7 -72 -5 -15 -2
-16 33 -10 39 7 68 31 58 47 -3 5 2 19 10 31 19 27 21 69 4 86 -18 18 -56 14
-78 -8z"/>
<path d="M1556 8948 c-10 -14 -16 -44 -16 -75 0 -63 -18 -71 -22 -10 -5 63
-30 57 -42 -10 -11 -69 2 -87 57 -80 48 7 93 47 106 95 21 74 -44 136 -83 80z"/>
<path d="M1150 8770 c-39 -39 -19 -150 26 -150 28 0 39 15 40 60 1 19 5 52 9
73 8 36 7 37 -24 37 -18 0 -40 -9 -51 -20z"/>
<path d="M1070 8753 c-49 -18 -70 -76 -50 -137 25 -78 83 -26 84 76 1 61 -5
71 -34 61z"/>
<path d="M152 8091 c-19 -12 -11 -65 10 -69 12 -2 19 5 24 23 8 31 -13 59 -34
46z"/>
<path d="M149 7988 c-1 -7 0 -19 1 -27 1 -8 -6 -31 -15 -51 -14 -30 -15 -44
-6 -77 12 -46 38 -75 45 -52 7 21 14 192 9 207 -3 6 -11 12 -19 12 -8 0 -15
-6 -15 -12z"/>
<path d="M2720 6840 c-12 -7 -11 -12 5 -30 16 -18 17 -25 7 -54 -28 -76 -1
-132 32 -68 8 15 26 38 40 51 36 34 35 75 -1 89 -50 19 -68 22 -83 12z"/>
<path d="M3335 5961 c-9 -15 12 -406 22 -426 14 -26 115 -80 135 -73 21 9 31
70 18 116 -5 22 -9 88 -8 148 2 140 -10 177 -65 206 -53 26 -95 39 -102 29z
m98 -93 c13 -10 18 -36 23 -119 8 -131 0 -202 -24 -197 -9 2 -22 15 -29 29
-15 30 -36 253 -28 281 7 21 34 24 58 6z"/>
<path d="M8563 4386 c-12 -14 -25 -52 -31 -83 -6 -32 -12 -62 -13 -68 -7 -22
12 -93 28 -108 25 -22 101 -49 142 -51 l35 -1 23 145 c12 80 22 148 23 153 0
16 -28 6 -42 -15 l-15 -22 -29 32 c-19 21 -42 35 -65 38 -30 5 -39 2 -56 -20z
m72 -90 c-13 -92 -28 -112 -59 -80 -19 19 -19 13 0 71 20 59 31 74 50 66 12
-5 14 -16 9 -57z m60 -133 c-3 -19 -12 -33 -20 -33 -15 0 -14 36 2 130 l6 35
9 -50 c5 -27 7 -65 3 -82z"/>
<path d="M4637 4153 c-15 -15 -5 -51 21 -75 67 -63 107 -68 100 -12 -2 23 -9
30 -30 32 -18 2 -30 12 -38 33 -12 27 -38 38 -53 22z"/>
<path d="M4784 4037 c-14 -38 51 -91 104 -85 36 4 37 43 2 70 -36 26 -98 35
-106 15z"/>
<path d="M4947 3973 c-11 -11 -8 -58 5 -71 19 -19 35 -14 42 13 11 42 -23 83
-47 58z"/>
<path d="M5503 4678 c-4 -7 -10 -68 -13 -135 l-5 -123 80 -36 c44 -19 97 -47
117 -60 45 -29 62 -30 87 -5 18 18 19 32 17 134 -1 62 -6 119 -10 125 -12 20
-225 112 -257 112 -4 0 -11 -6 -16 -12z m159 -88 c52 -19 58 -25 64 -57 6 -34
0 -150 -9 -159 -6 -7 -87 24 -134 52 l-43 25 0 62 c0 34 3 73 7 85 7 28 23 27
115 -8z"/>
<path d="M5893 4508 c-6 -8 -7 -64 -4 -138 l6 -124 70 -41 c121 -71 195 -108
202 -101 13 12 31 270 21 289 -5 10 -26 25 -46 34 -20 8 -76 32 -123 54 -92
42 -111 46 -126 27z m222 -117 c30 -17 30 -18 26 -92 -2 -40 -7 -84 -12 -96
l-8 -22 -78 36 c-43 19 -84 40 -90 45 -9 7 -13 38 -13 88 0 115 -1 114 78 84
37 -14 80 -33 97 -43z"/>
<path d="M6345 4172 c-9 -156 -2 -174 97 -237 104 -68 173 -98 195 -87 16 9
18 26 18 163 l0 153 -55 33 c-62 37 -200 93 -229 93 -17 0 -19 -11 -26 -118z
m173 7 c38 -19 67 -40 71 -53 8 -18 16 -166 12 -203 0 -7 -6 -13 -11 -13 -20
0 -170 92 -185 113 -16 22 -22 177 -8 191 11 10 50 -1 121 -35z"/>
<path d="M6885 4018 c-9 -24 -12 -58 -8 -119 5 -70 2 -92 -12 -123 -18 -38
-18 -39 0 -52 10 -8 26 -14 35 -14 9 0 43 -16 76 -36 132 -80 174 -92 194 -54
14 25 6 260 -9 289 -24 43 -96 92 -174 116 -43 14 -80 25 -83 25 -3 0 -11 -15
-19 -32z m137 -70 c40 -17 77 -35 81 -38 9 -8 12 -238 4 -246 -6 -7 -146 63
-169 84 -15 12 -18 32 -18 117 0 56 3 105 7 108 10 11 19 9 95 -25z"/>
<path d="M7665 3871 c-3 -11 -8 -144 -10 -295 l-4 -276 43 -30 c24 -16 68 -39
97 -50 48 -19 54 -20 65 -6 17 24 35 504 20 558 -4 16 -33 37 -95 71 -50 26
-94 47 -100 47 -5 0 -12 -9 -16 -19z m134 -106 c26 -13 30 -21 35 -77 3 -35 3
-139 -1 -233 -9 -191 -13 -199 -77 -150 -30 23 -34 32 -41 92 -4 36 -4 141 0
234 l7 168 24 -9 c13 -5 37 -16 53 -25z"/>
<path d="M8104 3656 c-3 -7 -4 -137 -2 -287 4 -320 -2 -302 117 -381 78 -51
318 -172 365 -184 17 -4 35 0 52 11 25 16 26 19 19 79 -4 33 -10 166 -14 295
l-6 235 -32 8 c-18 5 -61 25 -95 45 -60 35 -381 193 -393 193 -3 0 -8 -6 -11
-14z m86 -191 c0 -5 10 -15 23 -20 13 -6 23 -21 25 -37 2 -14 9 -31 16 -37 11
-9 15 -4 20 21 l7 33 14 -33 c18 -40 35 -34 35 13 0 38 8 65 20 65 5 0 8 -54
7 -119 -1 -66 1 -122 5 -126 16 -17 28 11 28 65 0 95 17 78 24 -25 10 -145 26
-171 87 -141 18 9 33 16 34 16 1 0 5 -37 8 -82 5 -73 9 -85 31 -105 15 -12 26
-33 26 -46 0 -51 -19 -48 -170 25 -160 76 -266 141 -274 166 -10 31 -11 387
-2 401 8 12 11 11 23 -4 7 -11 13 -24 13 -30z"/>
<path d="M9066 3194 c-14 -13 -16 -47 -16 -212 0 -108 3 -234 7 -280 6 -81 7
-85 49 -127 49 -50 124 -91 243 -130 l85 -28 19 24 c17 21 19 34 13 98 -3 41
-6 163 -6 273 l0 198 -32 35 c-39 41 -278 165 -319 165 -15 0 -35 -7 -43 -16z
m344 -269 c0 -25 -4 -45 -10 -45 -11 0 -13 33 -4 68 10 34 14 27 14 -23z
m-185 -111 c0 -58 23 -94 59 -94 25 0 90 -81 114 -141 16 -42 10 -89 -13 -89
-21 0 -163 57 -211 85 -54 32 -67 67 -68 178 l-1 90 35 13 c19 7 46 12 60 11
23 -2 25 -6 25 -53z"/>
<path d="M10442 2653 c-14 -32 -17 -81 -20 -316 -3 -205 0 -282 9 -293 7 -8
29 -14 54 -14 59 0 162 -21 340 -69 170 -47 193 -49 223 -21 28 27 29 28 42
290 14 274 6 336 -53 374 -40 26 -408 86 -530 86 -46 0 -49 -2 -65 -37z m108
-65 c0 -41 -21 -108 -33 -108 -10 0 -2 124 9 142 10 16 24 -3 24 -34z m70 -15
c-3 -75 -2 -85 9 -79 5 3 11 31 13 61 5 62 20 87 40 67 9 -9 9 -29 -1 -89 -24
-150 -51 -202 -51 -100 0 37 -3 48 -10 37 -5 -8 -10 -31 -10 -50 0 -57 -16
-70 -29 -24 -22 81 -5 234 26 234 12 0 14 -13 13 -57z m339 17 c42 -10 57 -19
76 -48 14 -20 25 -50 25 -67 l0 -30 -19 31 c-18 29 -81 64 -116 64 -25 0 -37
-39 -42 -138 -5 -102 -18 -155 -37 -149 -8 3 -10 53 -9 160 2 188 -11 211 -33
55 -3 -26 -11 -54 -18 -63 -9 -13 -10 5 -3 80 5 53 6 100 2 103 -12 12 -33
-29 -40 -78 -4 -27 -13 -57 -21 -67 -13 -16 -14 -9 -12 63 2 45 8 87 15 95 9
12 29 13 96 8 47 -4 108 -12 136 -19z m-28 -320 c-8 -21 -10 -16 -10 30 -1 81
13 121 17 50 2 -31 -2 -67 -7 -80z m-415 -4 c-7 -12 -21 -22 -30 -24 -13 -3
-16 6 -16 49 l0 53 30 -29 c27 -26 29 -31 16 -49z m214 27 c0 -23 -29 -53 -52
-53 -31 0 -20 52 12 61 38 11 40 10 40 -8z m-109 -95 c24 -47 51 -49 86 -8 29
35 51 38 84 12 21 -18 22 -21 10 -65 -8 -26 -11 -53 -8 -62 4 -8 36 -29 72
-47 36 -18 65 -36 65 -42 0 -16 -97 2 -239 43 -75 22 -153 43 -174 47 -43 7
-60 30 -55 76 2 24 11 36 38 51 19 10 44 27 54 37 24 23 38 14 67 -42z m301
-68 c19 0 25 -34 9 -59 -9 -14 -44 -8 -68 11 -19 15 -16 58 5 81 17 19 17 19
26 -7 6 -15 18 -26 28 -26z m106 -107 c5 -33 -15 -63 -43 -63 -30 0 -39 14
-20 30 8 7 15 20 15 30 0 37 43 40 48 3z"/>
<path d="M11378 2243 c-39 -27 -60 -64 -38 -71 7 -3 -1 -17 -21 -38 -18 -19
-30 -36 -27 -40 15 -15 176 106 200 150 9 16 4 15 -37 -8 -48 -26 -69 -30 -40
-6 15 13 21 40 8 39 -5 0 -25 -12 -45 -26z"/>
<path d="M11418 2145 c-98 -78 -183 -163 -174 -172 9 -10 74 33 140 93 39 35
90 82 114 102 38 35 54 62 34 62 -4 0 -55 -38 -114 -85z"/>
<path d="M11465 2079 c-162 -132 -169 -139 -155 -153 5 -5 55 28 122 82 128
102 192 165 186 182 -2 6 -71 -44 -153 -111z"/>
<path d="M9031 3998 c-61 -129 -81 -260 -41 -273 32 -10 60 12 60 48 0 18 14
75 30 127 17 52 30 105 30 118 0 27 -17 62 -30 62 -5 0 -27 -37 -49 -82z"/>
<path d="M9895 4346 c-61 -23 -127 -52 -147 -64 -50 -31 -99 -88 -91 -107 8
-22 24 -14 43 21 20 35 66 62 187 109 93 37 144 67 127 77 -5 3 -59 -13 -119
-36z"/>
<path d="M10061 4119 c-13 -11 -39 -19 -60 -19 -46 0 -111 -18 -111 -31 0 -6
16 -17 36 -25 36 -15 37 -15 96 25 32 22 65 42 71 44 8 3 9 8 2 15 -7 7 -17 5
-34 -9z"/>
<path d="M9731 3664 c-19 -24 -48 -136 -52 -199 -6 -104 20 -98 38 9 7 43 24
106 38 140 14 35 25 66 25 69 0 17 -30 5 -49 -19z"/>
<path d="M10192 3970 c-33 -20 -47 -41 -40 -60 4 -12 108 56 108 70 0 16 -33
11 -68 -10z"/>
<path d="M10135 3498 c-21 -39 -29 -69 -33 -126 -4 -60 -2 -74 9 -70 7 2 19
33 26 69 7 35 20 86 29 112 23 71 4 80 -31 15z"/>
<path d="M10055 3506 c-33 -50 -50 -173 -23 -164 12 4 41 90 55 161 7 34 -11
36 -32 3z"/>
<path d="M10221 3481 c-24 -33 -54 -140 -49 -174 7 -47 31 -22 48 48 9 39 24
87 33 107 23 55 2 67 -32 19z"/>
<path d="M10395 3364 c-22 -33 -33 -138 -15 -149 6 -4 16 -3 20 1 7 8 40 144
40 167 0 17 -29 5 -45 -19z"/>
<path d="M10490 3315 c-18 -22 -25 -92 -10 -110 24 -28 38 -17 44 38 10 75 -5
107 -34 72z"/>
<path d="M10570 3275 c0 -27 40 -97 53 -92 34 11 4 107 -33 107 -11 0 -20 -7
-20 -15z"/>
<path d="M10983 3427 c-25 -37 -32 -61 -19 -67 12 -7 43 38 52 73 8 36 -6 34
-33 -6z"/>
<path d="M9880 2360 c0 -37 91 -55 98 -19 3 18 -37 39 -73 39 -18 0 -25 -5
-25 -20z"/>
<path d="M10957 813 c-13 -12 -7 -40 11 -55 18 -17 145 -37 252 -41 l65 -2 3
31 c2 17 -3 36 -10 41 -23 19 -306 42 -321 26z"/>
<path d="M11955 1741 c-11 -5 -29 -18 -39 -30 -16 -18 -17 -25 -8 -46 16 -34
57 -35 48 -2 -4 17 1 30 19 47 34 32 23 48 -20 31z"/>
<path d="M11986 1515 c-4 -13 -10 -14 -26 -5 -16 9 -29 6 -60 -11 -45 -26 -49
-34 -19 -49 16 -9 35 -7 87 11 82 28 87 32 67 53 -21 20 -41 21 -49 1z"/>
<path d="M7716 9575 c-21 -22 -20 -52 2 -64 23 -12 42 3 42 35 0 33 -24 49
-44 29z"/>
<path d="M7862 9571 c-19 -12 -11 -45 12 -49 24 -5 37 17 25 40 -11 20 -18 22
-37 9z"/>
<path d="M7993 9564 c-3 -8 -1 -20 5 -26 16 -16 42 -2 42 22 0 24 -38 28 -47
4z"/>
<path d="M7461 9561 c-7 -5 -11 -21 -9 -37 4 -39 42 -41 46 -3 3 29 -17 52
-37 40z"/>
<path d="M7573 9554 c-8 -22 10 -49 33 -49 22 0 31 30 14 50 -16 20 -39 19
-47 -1z"/>
<path d="M6808 9533 c-41 -17 -45 -29 -27 -78 21 -56 7 -80 -63 -108 -62 -24
-63 -25 -68 -68 -4 -39 -8 -44 -33 -47 -56 -7 -75 -106 -25 -133 16 -9 34 -9
75 1 92 20 86 -10 -14 -66 -67 -38 -71 -39 -193 -44 l-125 -5 -3 -26 c-5 -43
22 -61 77 -52 54 9 142 8 188 -2 22 -5 46 -2 73 9 38 15 41 15 60 -4 21 -21
27 -55 11 -64 -4 -3 -34 -12 -66 -20 -53 -15 -59 -14 -96 4 -51 26 -120 25
-190 -3 -41 -17 -62 -21 -81 -15 -20 7 -42 3 -90 -16 -83 -33 -86 -33 -138 -8
-59 28 -115 28 -172 -1 l-45 -23 -55 23 c-30 12 -79 36 -107 52 -29 17 -58 31
-66 31 -8 0 -32 -16 -54 -35 -58 -53 -64 -48 -55 45 7 90 -2 101 -46 55 -13
-14 -35 -25 -48 -25 -36 0 -60 -26 -78 -84 -11 -37 -23 -56 -47 -72 -23 -14
-31 -27 -29 -43 1 -14 -2 -21 -10 -19 -7 3 -14 16 -16 31 -5 45 -26 52 -80 29
-26 -11 -73 -22 -104 -24 -54 -4 -58 -3 -58 17 0 12 -6 30 -14 41 -14 18 -17
18 -43 4 -15 -9 -32 -29 -37 -45 -13 -40 -11 -37 -53 -44 -26 -4 -39 -12 -43
-26 -8 -33 -72 -105 -92 -105 -17 0 -53 16 -86 38 -10 7 -8 18 7 53 26 56 26
81 1 104 -14 13 -28 16 -50 11 -23 -4 -42 0 -69 16 -53 30 -70 21 -64 -34 4
-34 1 -49 -12 -62 -13 -12 -21 -14 -28 -7 -23 23 -46 12 -53 -24 -7 -40 -12
-41 -98 -20 -93 24 -116 35 -132 66 -8 16 -19 29 -24 29 -6 0 -26 -22 -46 -50
-38 -53 -68 -64 -79 -30 -3 11 -15 20 -25 20 -11 0 -24 -9 -30 -20 -13 -24
-35 -25 -82 -5 -25 10 -38 11 -46 3 -6 -6 -22 -8 -36 -4 -19 5 -25 13 -28 38
-4 45 -35 51 -49 10 -7 -21 -20 -32 -42 -39 -38 -10 -48 -45 -21 -74 23 -25
48 -24 67 4 12 18 18 20 34 11 10 -6 19 -18 21 -26 2 -9 24 -38 50 -66 43 -45
55 -52 137 -75 50 -14 108 -29 130 -34 27 -6 43 -16 50 -31 9 -20 15 -21 55
-16 67 9 234 -23 307 -58 45 -21 98 -35 185 -48 135 -21 162 -29 384 -118 83
-33 180 -68 215 -77 35 -8 94 -29 131 -46 38 -17 146 -50 240 -74 95 -24 193
-50 217 -59 24 -9 46 -14 49 -12 11 12 -11 38 -45 53 -45 19 -256 79 -332 94
-29 6 -88 25 -130 44 -42 18 -92 36 -111 40 -52 11 -205 62 -240 80 -47 24
-27 35 35 19 49 -13 58 -13 92 3 61 29 54 83 -11 83 l-31 1 28 17 c32 20 31
30 -9 54 -67 41 -73 42 -94 23 -13 -12 -28 -16 -48 -12 -16 3 -34 1 -39 -4 -7
-7 -16 -1 -27 15 -13 20 -24 25 -49 24 -27 -3 -33 1 -35 21 -5 34 13 48 36 28
24 -22 56 -22 77 -1 18 18 11 30 -20 36 -13 2 -21 13 -23 32 -5 37 11 51 51
48 24 -2 39 3 56 22 28 30 43 32 61 11 16 -19 57 -19 90 0 14 8 52 14 88 15
47 0 67 5 80 18 19 19 127 34 255 36 56 1 61 3 91 40 38 44 55 43 112 -6 l35
-31 29 22 c35 25 43 26 74 6 23 -15 25 -14 45 11 22 28 23 28 96 1 28 -11 46
-12 65 -5 14 5 44 7 67 3 34 -5 45 -2 62 16 18 20 23 21 51 9 35 -15 229 -8
289 10 48 14 62 0 54 -56 -6 -45 -7 -44 44 -60 10 -2 9 -12 -4 -39 -13 -27
-14 -38 -5 -47 20 -20 59 29 74 92 18 75 41 75 48 0 4 -45 9 -57 31 -69 14 -8
34 -11 44 -7 18 7 18 7 -1 128 -5 33 -2 41 25 68 30 30 33 31 108 28 74 -3 78
-2 81 19 5 36 -38 57 -103 50 -53 -5 -54 -5 -60 25 -4 16 -5 31 -3 33 2 3 37
10 77 17 68 12 75 11 114 -10 78 -41 115 -21 83 44 -21 44 -57 60 -161 69 -94
9 -139 25 -155 55 -10 18 -9 24 1 31 19 12 76 11 119 -1 41 -12 55 -2 46 33
-3 15 -20 31 -42 42 -35 16 -36 18 -30 58 6 40 13 50 74 98 58 45 -42 51 -132
7 -58 -28 -66 -20 -66 70 0 61 -21 133 -37 131 -4 -1 -25 -8 -45 -16z m-1348
-748 c0 -16 -6 -25 -15 -25 -9 0 -35 -18 -60 -41 -30 -28 -51 -40 -67 -37 -20
3 -15 9 37 50 34 25 67 53 74 62 19 23 31 20 31 -9z m-834 -77 c7 -23 -18 -54
-35 -44 -12 8 -14 36 -5 60 7 19 31 10 40 -16z m294 -87 c0 -10 -7 -24 -15
-31 -12 -10 -16 -9 -21 4 -6 16 11 46 27 46 5 0 9 -8 9 -19z m-80 -99 c0 -54
-51 -72 -72 -26 -11 22 -10 28 7 40 10 8 29 14 42 14 19 0 23 -5 23 -28z
m-585 -32 c18 -20 18 -21 -3 -42 -20 -21 -25 -21 -64 -10 -48 14 -49 14 -98 7
l-35 -5 35 15 c19 9 53 24 75 35 52 24 68 24 90 0z m216 -50 c27 -15 24 -24
-16 -43 -34 -16 -34 -16 -54 10 -12 14 -18 29 -15 34 7 12 61 11 85 -1z m433
-156 c9 -3 16 -13 16 -21 0 -11 -11 -13 -47 -11 -67 4 -68 32 -1 37 9 0 23 -2
32 -5z"/>
<path d="M7061 9526 c-22 -26 22 -88 50 -70 5 3 9 18 9 33 0 44 -35 66 -59 37z"/>
<path d="M6653 9523 c-20 -7 -15 -48 6 -67 24 -22 41 -13 41 19 0 18 -24 58
-33 54 -1 0 -8 -3 -14 -6z"/>
<path d="M5942 9508 c-29 -29 6 -98 43 -85 31 12 14 97 -20 97 -6 0 -16 -5
-23 -12z"/>
<path d="M6496 9504 c-10 -27 -7 -43 15 -65 16 -16 23 -18 35 -8 28 23 9 89
-25 89 -11 0 -22 -7 -25 -16z"/>
<path d="M6933 9513 c-18 -7 -16 -58 2 -73 8 -7 22 -10 30 -6 18 7 20 57 3 74
-13 13 -16 13 -35 5z"/>
<path d="M6091 9496 c-19 -23 3 -66 34 -66 19 0 25 5 25 21 0 48 -35 75 -59
45z"/>
<path d="M6225 9499 c-18 -28 28 -91 54 -75 14 9 19 40 10 64 -9 23 -52 31
-64 11z"/>
<path d="M6362 9498 c-7 -7 -12 -19 -12 -27 0 -22 30 -50 46 -44 20 7 18 69
-2 77 -20 8 -18 8 -32 -6z"/>
<path d="M5781 9482 c-13 -25 9 -67 34 -67 22 0 30 24 21 61 -8 29 -41 32 -55
6z"/>
<path d="M4421 8921 c-7 -12 -18 -17 -33 -14 -26 5 -62 -28 -71 -64 -8 -33 16
-29 52 9 29 31 31 32 66 19 43 -15 50 -11 41 23 -9 36 -42 52 -55 27z"/>
<path d="M4287 8724 c-12 -13 -8 -23 17 -39 29 -20 58 -10 54 19 -2 15 -11 22
-33 24 -17 2 -34 0 -38 -4z"/>
<path d="M7520 8648 c-11 -24 -20 -56 -20 -73 0 -59 -60 -122 -133 -140 -21
-6 -27 -13 -25 -29 2 -17 10 -21 40 -22 42 -2 128 -32 128 -45 0 -17 -40 -29
-95 -29 -31 0 -66 -5 -78 -12 -12 -6 -37 -11 -56 -9 -40 2 -81 -30 -81 -65 0
-32 14 -37 49 -19 17 8 46 15 64 15 45 0 167 -38 167 -51 0 -6 -12 -23 -27
-38 -22 -22 -44 -30 -105 -40 -43 -7 -80 -16 -83 -21 -3 -5 -27 -16 -53 -26
-53 -20 -82 -41 -82 -61 0 -7 8 -13 19 -13 10 0 26 -12 36 -26 16 -25 19 -26
86 -19 47 5 69 4 69 -4 0 -19 -132 -151 -156 -157 -15 -4 -34 0 -49 10 -30 20
-55 21 -55 1 0 -17 -31 -26 -77 -23 -33 3 -42 12 -23 23 6 3 10 13 10 20 0 18
-21 11 -81 -29 -26 -17 -54 -36 -64 -41 -15 -9 -16 -14 -6 -33 14 -27 36 -28
108 -2 70 25 97 25 149 1 62 -28 84 -57 84 -109 l0 -44 32 6 c31 6 31 6 13
-14 -23 -26 -65 -26 -98 0 -28 22 -53 18 -62 -11 -10 -31 -38 -40 -94 -29 -30
5 -61 6 -74 1 -15 -6 -30 -5 -43 2 -10 6 -82 13 -159 15 -119 4 -144 7 -167
24 -36 25 -36 48 0 48 35 0 68 23 87 61 9 16 24 29 34 29 57 0 69 40 21 68
-36 20 -37 24 -8 37 26 12 38 43 27 72 -8 21 -12 22 -69 16 l-61 -6 7 79 c4
43 11 89 15 102 6 16 2 34 -13 64 -16 30 -24 69 -30 152 -9 125 -11 136 -32
136 -23 0 -35 -32 -37 -96 -1 -58 -3 -60 -57 -111 l-55 -53 11 -77 c11 -79 2
-167 -18 -187 -5 -5 -56 -13 -112 -17 -57 -4 -106 -8 -110 -8 -17 -2 -7 -45
17 -73 23 -27 34 -68 18 -68 -3 0 -14 7 -24 16 -20 18 -49 12 -49 -9 0 -8 10
-29 23 -48 28 -42 75 -53 84 -20 8 32 47 36 95 10 24 -12 61 -23 83 -23 33 -1
40 -4 40 -21 0 -16 -7 -20 -36 -20 -24 -1 -49 -10 -72 -28 l-36 -27 -119 14
c-66 8 -129 19 -140 25 -11 6 -36 11 -55 11 -22 0 -37 6 -41 15 -10 27 -37 16
-52 -21 -8 -20 -14 -57 -12 -82 3 -45 5 -47 38 -53 74 -15 114 -36 122 -65 10
-37 23 -43 67 -32 20 5 68 13 106 18 39 5 90 12 115 15 33 5 50 2 65 -9 20
-16 20 -16 -5 -36 -14 -11 -44 -27 -68 -36 -37 -15 -53 -16 -105 -6 -62 11
-105 7 -199 -19 -61 -16 -108 -13 -160 11 -40 17 -52 19 -70 9 -42 -22 -48
-45 -20 -79 18 -23 19 -23 50 -5 33 20 27 22 99 -30 9 -7 23 -5 44 8 37 21 53
21 69 2 19 -23 47 -18 96 16 36 27 46 30 59 19 8 -7 15 -21 15 -31 0 -16 -5
-18 -25 -13 -20 5 -25 2 -30 -19 -11 -42 -2 -62 25 -62 19 0 29 9 42 37 19 39
47 67 34 32 -4 -10 -10 -41 -13 -69 -3 -27 -13 -58 -21 -68 -15 -16 -16 -16
-34 3 -24 26 -45 25 -110 -5 l-53 -25 -18 25 c-25 33 -70 33 -102 0 -29 -28
-30 -34 -11 -61 14 -19 15 -19 38 4 28 25 38 20 38 -19 0 -15 7 -34 15 -43 14
-14 19 -14 50 1 28 14 41 14 72 5 53 -16 107 -64 132 -117 17 -37 31 -50 66
-65 29 -13 49 -29 55 -45 12 -31 37 -42 54 -24 7 8 20 34 30 59 18 49 38 77
75 102 23 16 26 16 80 -12 60 -32 81 -36 111 -20 13 7 21 7 25 0 10 -17 58
-11 94 11 30 18 43 20 103 14 40 -4 74 -3 81 3 6 5 27 9 44 9 18 0 42 8 52 17
31 28 41 11 41 -67 1 -46 6 -79 15 -91 10 -13 12 -36 8 -85 -4 -54 -2 -69 11
-80 9 -7 16 -23 16 -35 1 -55 46 -60 56 -6 4 16 9 30 11 30 3 0 23 -16 46 -35
55 -48 80 -52 134 -26 24 11 61 21 83 21 30 0 43 6 59 26 16 21 23 23 40 15
11 -6 33 -11 50 -11 29 0 30 -2 21 -26 -6 -14 -10 -27 -10 -29 0 -15 42 -38
100 -55 60 -18 70 -24 70 -44 0 -30 37 -68 63 -64 11 2 28 17 37 33 13 24 24
30 56 33 55 3 67 -7 53 -46 -14 -40 -6 -75 23 -102 27 -25 63 -25 112 -1 71
37 93 41 109 23 9 -9 19 -29 22 -45 14 -56 52 -54 88 6 10 15 26 27 37 27 26
0 26 26 1 40 -31 16 -59 12 -75 -12 l-15 -21 -43 38 c-59 53 -61 59 -48 115
14 59 8 83 -25 98 -13 6 -31 27 -39 45 -8 19 -19 37 -24 41 -18 11 -42 -36
-42 -79 0 -23 -6 -50 -14 -61 -13 -17 -16 -17 -29 -4 -13 13 -13 26 -1 104 16
98 14 116 -15 116 -32 0 -51 28 -51 75 0 39 -13 65 -26 52 -3 -2 -9 -33 -15
-68 -13 -84 -23 -95 -59 -69 -52 37 -143 19 -126 -25 3 -8 1 -15 -4 -15 -5 0
-12 16 -16 34 -7 40 -27 49 -68 28 -46 -23 -56 0 -19 45 26 33 36 38 74 39 70
1 145 31 188 76 36 37 42 39 87 36 44 -3 49 -1 52 20 3 17 -1 22 -20 22 -29 0
-48 17 -48 44 0 29 37 86 55 86 17 0 19 -9 6 -43 -5 -13 -6 -28 -3 -33 8 -11
163 -84 178 -84 6 0 31 -15 55 -34 66 -51 195 -119 274 -144 98 -32 325 -159
325 -182 0 -49 -14 -82 -42 -96 -16 -8 -45 -37 -64 -64 -27 -38 -45 -52 -75
-60 -44 -12 -56 -37 -45 -95 7 -34 6 -35 -22 -29 -17 4 -41 0 -58 -9 -21 -11
-35 -12 -47 -5 -44 24 -64 -20 -22 -48 22 -14 32 -15 66 -5 38 12 41 11 61
-14 20 -25 25 -27 72 -20 72 9 86 25 86 97 0 72 21 98 79 98 43 0 53 12 39 49
-11 30 1 44 33 39 18 -2 25 -10 27 -32 5 -39 -28 -71 -100 -97 -67 -25 -73
-41 -28 -84 36 -34 38 -45 7 -45 -32 0 -47 -18 -47 -56 0 -23 8 -39 26 -53 53
-42 106 -14 108 56 1 31 5 38 21 38 14 0 26 -13 40 -42 11 -24 23 -43 28 -43
5 0 23 11 39 25 44 37 53 30 72 -56 7 -31 23 -40 90 -48 75 -9 72 -31 -4 -31
-64 0 -102 14 -134 49 -26 29 -40 15 -19 -20 23 -38 104 -69 181 -69 102 0
122 47 43 103 -39 27 -40 29 -34 76 7 58 -4 68 -48 45 -31 -16 -33 -16 -50 7
-10 13 -19 27 -19 31 0 4 -12 11 -26 14 -17 4 -31 18 -40 41 -21 50 -49 42
-49 -15 0 -23 -4 -42 -8 -42 -12 0 -48 20 -84 48 l-33 24 50 45 c62 56 80 104
56 151 -9 18 -23 32 -32 32 -23 0 -74 55 -74 79 0 33 15 25 62 -30 52 -61 100
-90 195 -118 87 -26 124 -55 157 -124 25 -53 61 -95 72 -84 11 11 -77 176
-107 201 -15 13 -66 36 -111 51 -77 25 -88 32 -153 100 -55 57 -96 87 -190
140 -66 37 -131 76 -145 85 -14 9 -56 27 -94 39 -87 28 -221 95 -263 132 -18
15 -63 37 -100 48 -38 12 -74 25 -82 30 -20 13 -7 54 30 96 21 24 29 40 24 54
-8 27 -32 30 -85 10 -99 -37 -188 -32 -237 14 -20 18 -27 19 -62 9 -57 -17
-81 -15 -81 7 0 45 111 136 153 126 20 -5 26 -1 37 24 20 49 33 54 75 30 20
-12 40 -18 44 -13 5 5 23 37 42 72 45 82 38 95 -60 103 -39 4 -82 14 -94 22
-12 8 -51 18 -85 22 -39 4 -62 12 -62 19 0 20 -30 43 -85 64 -57 22 -77 47
-65 79 14 35 72 41 145 15 80 -29 109 -28 135 5 11 15 19 34 18 42 -2 9 -28
30 -58 48 -30 17 -68 43 -83 58 -19 17 -35 24 -48 20 -12 -4 -29 2 -45 14 -37
29 -60 26 -86 -9 -26 -35 -34 -37 -48 -10 -22 41 -5 55 89 74 50 10 104 16
121 14 36 -5 60 20 60 62 0 36 -11 48 -60 65 -75 26 -190 97 -190 116 0 16 9
17 88 13 101 -6 137 6 137 46 0 36 -45 50 -84 27 -39 -23 -45 -22 -86 14 -41
36 -38 44 31 84 38 22 43 29 34 45 -6 12 -34 26 -67 36 l-56 16 7 90 c6 73 4
95 -9 114 -23 35 -44 29 -65 -18z m-180 -603 c10 -12 7 -15 -15 -21 -30 -7
-40 -1 -32 21 8 19 31 19 47 0z m-760 -353 c0 -25 -45 -66 -64 -59 -22 8 -20
54 2 66 29 17 62 13 62 -7z m798 -10 c15 -10 35 -22 45 -25 25 -9 21 -54 -8
-83 -33 -33 -55 -28 -80 19 -11 21 -29 43 -40 49 -30 16 -30 16 -10 38 23 25
59 26 93 2z m-694 -248 c9 -3 16 -12 16 -20 0 -10 -8 -13 -27 -8 -47 10 -54
14 -48 24 7 11 35 13 59 4z m221 -20 c78 -15 96 -22 132 -54 28 -25 65 -44
114 -58 l71 -22 42 25 c73 43 99 30 68 -32 -11 -21 -22 -51 -26 -67 -4 -17
-14 -45 -21 -63 -17 -40 -26 -37 -100 27 -25 22 -52 40 -60 40 -7 0 -27 -12
-45 -26 -29 -25 -32 -26 -50 -9 -32 29 -54 15 -64 -38 -10 -60 -5 -73 34 -82
19 -4 34 -15 40 -30 10 -26 29 -35 76 -35 38 0 46 -15 12 -24 -56 -15 -88 -7
-132 34 -25 23 -53 40 -67 40 -39 0 -91 37 -87 63 3 31 -9 47 -36 47 -15 0
-26 7 -29 19 -2 10 -30 38 -62 62 -74 57 -95 69 -121 69 -31 0 -61 37 -48 58
15 24 59 27 110 7 53 -20 75 -14 109 30 14 19 31 35 38 35 7 0 53 -7 102 -16z
m575 -10 c28 -33 9 -144 -25 -144 -17 0 -97 98 -92 113 2 8 76 42 98 46 4 1
12 -6 19 -15z m384 -41 c7 -17 0 -33 -14 -33 -13 0 -32 38 -25 50 8 12 32 2
39 -17z m-104 -25 c43 -29 43 -42 3 -46 -40 -4 -73 13 -73 37 0 38 23 40 70 9z
m-1172 -78 c34 0 52 -18 31 -31 -24 -15 -56 -10 -71 12 l-14 21 -31 -26 c-62
-52 -88 -20 -27 34 l36 31 22 -20 c13 -12 36 -21 54 -21z m1128 -42 c7 -23 -9
-44 -25 -33 -13 7 -35 48 -46 84 l-7 24 36 -28 c19 -15 38 -36 42 -47z m-1316
-11 c0 -25 -17 -47 -37 -47 -16 0 -17 24 -3 51 15 27 40 24 40 -4z m154 -107
c46 -10 56 -23 56 -73 0 -62 -37 -127 -73 -127 -3 0 -10 33 -17 73 -6 39 -20
84 -31 99 -10 15 -19 30 -19 33 0 8 40 6 84 -5z m156 -35 c6 -14 29 -34 60
-50 39 -20 50 -31 50 -50 0 -13 5 -27 10 -30 6 -3 10 -11 10 -18 0 -6 -17 5
-37 25 -21 20 -55 43 -76 53 -37 18 -55 50 -43 80 8 21 15 19 26 -10z m708
-42 c-17 -16 -67 -23 -66 -8 1 12 59 33 71 27 5 -2 3 -11 -5 -19z m305 -63
c29 -17 39 -19 63 -10 54 21 124 -11 124 -57 0 -21 -45 -26 -79 -8 l-32 16
-48 -52 c-39 -42 -52 -50 -70 -44 -28 8 -91 63 -91 78 0 12 80 97 92 97 4 0
22 -9 41 -20z m-318 -24 c0 -27 -30 -44 -52 -30 -25 15 -28 41 -6 47 34 9 58
3 58 -17z m-147 -3 c2 -8 -6 -13 -21 -13 -13 0 -36 -9 -50 -20 -33 -26 -37
-25 -37 5 0 17 8 29 23 35 30 12 79 8 85 -7z m39 -110 c16 -16 38 -33 48 -39
19 -10 18 -12 -12 -28 -57 -29 -153 -14 -153 25 0 15 15 27 87 68 1 1 14 -11
30 -26z m509 -27 c-18 -28 -36 -34 -36 -13 0 7 7 23 16 36 24 33 43 11 20 -23z
m-226 -46 c32 -32 37 -70 10 -92 -26 -21 -57 -22 -125 -5 -67 18 -71 41 -10
56 33 8 49 19 57 36 14 30 41 32 68 5z m-316 -59 c10 -15 -5 -41 -23 -41 -20
0 -41 19 -41 37 0 15 56 18 64 4z m106 -88 c0 -13 -4 -23 -10 -23 -22 0 -41
76 -23 94 10 9 32 -41 33 -71z m658 -72 c3 -19 -1 -21 -43 -21 -44 0 -45 1
-34 23 23 44 30 49 53 34 12 -8 22 -24 24 -36z"/>
<path d="M9517 6024 c-10 -11 21 -75 60 -122 45 -55 135 -115 200 -132 65 -18
319 -145 474 -237 69 -41 177 -112 238 -158 119 -89 161 -109 306 -144 126
-31 157 -51 246 -162 159 -197 352 -346 627 -483 80 -40 165 -70 339 -120 128
-37 355 -105 504 -152 170 -53 275 -82 281 -76 5 5 8 20 6 33 -3 21 -16 27
-123 54 -108 29 -189 53 -480 145 -49 16 -157 47 -240 69 -176 47 -243 73
-368 143 -236 131 -422 282 -541 442 -62 83 -106 108 -269 155 -133 38 -149
46 -264 133 -195 146 -500 325 -673 395 -115 46 -181 92 -237 163 -42 54 -69
71 -86 54z"/>
<path d="M1410 5811 c-13 -10 -13 -12 0 -21 8 -5 24 -10 35 -10 31 0 65 -11
65 -21 0 -5 -11 -11 -25 -15 -13 -3 -28 -11 -34 -17 -7 -9 22 -13 110 -15 127
-3 148 1 128 24 -7 9 -32 14 -71 14 -53 0 -59 2 -53 19 3 10 -1 23 -8 30 -20
16 -129 24 -147 12z"/>
<path d="M1557 5647 c-15 -10 -2 -15 83 -31 94 -18 102 -18 117 -3 9 9 15 19
12 21 -6 7 -128 26 -165 26 -16 0 -38 -6 -47 -13z"/>
<path d="M1686 5577 c-27 -20 -12 -26 85 -33 72 -6 86 -4 98 10 8 9 11 19 8
22 -3 4 -43 8 -89 11 -63 4 -88 1 -102 -10z"/>
<path d="M1750 5506 c0 -20 59 -36 132 -36 65 0 88 7 88 26 0 9 -13 12 -42 11
-24 -1 -73 2 -110 6 -58 7 -68 6 -68 -7z"/>
<path d="M1838 5413 c-43 -7 -35 -33 10 -33 20 0 74 -3 120 -7 71 -5 82 -4 82
10 0 9 -3 18 -7 20 -12 8 -175 15 -205 10z"/>
<path d="M1926 5321 c-3 -4 18 -21 47 -36 45 -24 66 -29 155 -33 87 -4 102 -2
102 11 0 16 -31 25 -188 52 -99 17 -109 18 -116 6z"/>
<path d="M2128 5204 c-5 -4 -8 -10 -8 -14 0 -29 156 -43 167 -15 3 9 3 19 -1
22 -9 9 -150 16 -158 7z"/>
<path d="M2222 5128 c-22 -22 -13 -26 73 -33 87 -8 115 0 115 31 0 18 -170 20
-188 2z"/>
<path d="M2393 5033 c-45 -3 -63 -8 -63 -18 0 -20 21 -23 164 -21 90 1 131 5
133 13 3 7 -12 16 -34 22 -37 11 -69 11 -200 4z"/>
<path d="M2545 4950 c-3 -5 -24 -10 -45 -10 -47 0 -56 -11 -29 -36 17 -16 26
-16 67 -7 166 40 197 63 83 63 -38 0 -73 -4 -76 -10z"/>
<path d="M2585 4869 c-11 -16 -4 -18 88 -25 63 -5 91 -4 102 6 8 7 12 16 9 21
-8 13 -191 11 -199 -2z"/>
<path d="M2660 4792 c0 -11 8 -28 17 -38 15 -15 32 -16 133 -10 124 6 171 15
167 31 -1 6 -35 9 -84 7 -73 -3 -145 5 -210 24 -19 5 -23 2 -23 -14z"/>
<path d="M2948 4681 c-64 -3 -120 -10 -125 -14 -12 -13 28 -38 50 -31 11 4 59
7 107 8 58 1 93 6 104 15 13 11 14 16 4 22 -7 5 -15 8 -18 7 -3 -1 -58 -4
-122 -7z"/>
<path d="M3109 4590 c-115 -11 -151 -30 -113 -61 13 -10 23 -10 62 4 26 10 63
17 82 18 44 0 102 20 108 37 4 13 -5 13 -139 2z"/>
<path d="M3235 4498 c-49 -4 -98 -7 -107 -4 -22 5 -24 -17 -3 -34 14 -11 81
-10 218 6 47 6 64 25 31 38 -17 7 -13 7 -139 -6z"/>
<path d="M3380 4423 c-19 -1 -63 -6 -97 -9 -46 -4 -63 -10 -63 -20 0 -23 46
-39 74 -26 13 5 64 13 115 17 63 5 91 11 91 20 0 23 -27 27 -120 18z"/>
<path d="M3435 4327 c-60 -5 -112 -11 -114 -13 -2 -2 4 -13 14 -24 20 -22 64
-27 82 -9 7 7 58 15 115 18 104 7 133 14 123 32 -7 11 -68 10 -220 -4z"/>
<path d="M3710 4238 c-30 -5 -70 -11 -87 -14 -33 -5 -43 -18 -20 -26 24 -9
149 10 164 25 21 21 6 25 -57 15z"/>
<path d="M3480 4212 c0 -23 35 -52 62 -52 21 0 24 32 5 48 -6 6 -24 13 -40 17
-23 6 -27 4 -27 -13z"/>
<path d="M9395 780 c-38 -10 -106 -27 -149 -39 -102 -27 -124 -27 -191 6 -41
20 -58 24 -66 16 -20 -20 -3 -39 63 -76 l65 -36 64 15 c131 30 284 76 299 90
13 12 13 16 0 28 -13 12 -25 11 -85 -4z"/>
<path d="M9645 574 c-196 -62 -187 -60 -239 -30 -46 27 -80 33 -91 17 -6 -12
57 -65 104 -87 33 -16 37 -15 170 25 75 22 157 44 183 47 26 4 49 12 52 19 5
13 -20 56 -32 54 -4 0 -70 -21 -147 -45z"/>
<path d="M9970 581 c0 -21 129 -102 271 -171 45 -22 108 -59 138 -84 31 -24
103 -74 161 -112 58 -37 135 -90 171 -116 75 -54 99 -60 99 -25 0 19 -22 38
-112 97 -164 107 -295 188 -347 215 -25 12 -94 55 -153 94 -108 71 -198 121
-218 121 -5 0 -10 -8 -10 -19z"/>
<path d="M11914 529 c-13 -21 102 -100 312 -215 177 -96 236 -131 309 -185 69
-50 225 -131 242 -125 16 7 17 40 1 53 -7 6 -31 16 -52 23 -22 7 -88 45 -146
85 -127 87 -629 375 -653 375 -3 0 -9 -5 -13 -11z"/>
</g>
</svg>
